<?xml version="1.0" encoding="UTF-8"?>
<svg id="Layer_2" data-name="Layer 2" xmlns="http://www.w3.org/2000/svg" viewBox="0 0 78.91 56.43">
  <defs>
    <style>
      .cls-1 {
        fill: #282828;
      }

      .cls-2 {
        fill: #ff6029;
      }
    </style>
  </defs>
  <g id="_3" data-name="3">
    <g>
      <g>
        <path class="cls-2" d="M39.45,0H5.8C1.03,0-1.69,5.45,1.17,9.26l33.66,44.86c2.31,3.09,6.94,3.09,9.26,0L77.74,9.26c2.86-3.82.14-9.26-4.63-9.26h-33.66Z"/>
        <g>
          <path class="cls-1" d="M13.9,5.78c1.3,0,2.79.18,2.79,2.1,0,1.62-1.29,2.01-2.76,2.01h-.95v2.23h-1.25v-6.35h2.17ZM12.98,6.76v2.16h1.03c.77,0,1.39-.19,1.39-1.03,0-1.04-.81-1.13-1.48-1.13h-.95Z"/>
          <path class="cls-1" d="M18.48,5.78v3.67c0,1.12.23,1.79,1.38,1.79s1.37-.67,1.37-1.79v-3.67h1.25v3.66c0,2.09-.76,2.8-2.62,2.8s-2.64-.71-2.64-2.8v-3.66h1.25Z"/>
          <path class="cls-1" d="M29.02,10.05c-.17,1.29-1.23,2.2-2.75,2.2-1.89,0-2.97-1.29-2.97-3.32s1.16-3.26,3-3.26c1.49,0,2.5.85,2.71,2.17h-1.19c-.24-.88-.83-1.17-1.53-1.17-.96,0-1.7.79-1.7,2.26s.74,2.32,1.66,2.32c.75,0,1.37-.33,1.58-1.2h1.19Z"/>
          <path class="cls-1" d="M35.17,5.78v6.35h-1.25v-2.74h-2.85v2.74h-1.25v-6.35h1.25v2.59h2.85v-2.59h1.25Z"/>
          <path class="cls-1" d="M41.34,10.43l.87-4.65h1.28l-1.41,6.35h-1.48l-.96-4.73-.96,4.73h-1.48l-1.41-6.35h1.3l.95,4.62.88-4.62h1.46l.97,4.65Z"/>
          <path class="cls-1" d="M46.89,12.25c-1.89,0-3.11-1.32-3.11-3.29s1.22-3.28,3.11-3.28,3.11,1.31,3.11,3.28-1.22,3.29-3.11,3.29ZM46.89,11.25c.99,0,1.81-.8,1.81-2.29s-.82-2.29-1.81-2.29-1.81.8-1.81,2.29.82,2.29,1.81,2.29Z"/>
          <path class="cls-1" d="M53.47,9.65h-1.33v2.49h-1.25v-6.35h2.08c2.09,0,2.89.6,2.89,1.93,0,.74-.35,1.33-1.15,1.67l1.41,2.75h-1.39l-1.26-2.49ZM52.14,6.76v1.91h1.03c.98,0,1.4-.32,1.4-.95,0-.74-.61-.96-1.46-.96h-.97Z"/>
          <path class="cls-1" d="M58.07,8.69l2.59-2.91h1.46l-2.34,2.56,2.51,3.79h-1.48l-1.88-2.86-.88.96v1.91h-1.25v-6.35h1.25v2.91Z"/>
          <path class="cls-1" d="M64.31,9.35c-1.02-.21-1.9-.74-1.9-1.84,0-1.28,1.37-1.84,2.53-1.84,1.31,0,2.43.77,2.5,1.99h-1.21c-.1-.74-.74-.99-1.34-.99s-1.23.22-1.23.79c0,.45.37.69.88.79l.83.15c1.03.19,2.17.59,2.17,1.91s-1.3,1.94-2.57,1.94c-1.56,0-2.59-.84-2.71-2.21h1.21c.14.94.79,1.21,1.54,1.21.56,0,1.27-.21,1.27-.88,0-.53-.5-.75-1.17-.87l-.81-.15Z"/>
          <path class="cls-1" d="M28.22,17.88c-1.02-.21-1.9-.74-1.9-1.84,0-1.28,1.37-1.84,2.53-1.84,1.31,0,2.43.77,2.5,1.99h-1.21c-.1-.74-.74-.99-1.34-.99s-1.23.22-1.23.79c0,.45.37.69.88.79l.83.15c1.03.19,2.17.59,2.17,1.91s-1.3,1.94-2.57,1.94c-1.56,0-2.59-.84-2.71-2.21h1.21c.14.94.79,1.21,1.54,1.21.56,0,1.27-.21,1.27-.88,0-.53-.5-.75-1.17-.87l-.81-.15Z"/>
          <path class="cls-1" d="M32.46,14.67h1.21v1.28h.98v.83h-.98v2.43c0,.48.17.58.6.58h.37v.87h-.88c-1.09,0-1.29-.33-1.29-1.27v-2.61h-.67v-.83h.67v-1.28Z"/>
          <path class="cls-1" d="M38.32,20.04c-.27.48-.79.74-1.38.74-1.13,0-1.59-.69-1.59-1.85v-2.98h1.21v2.71c0,.63.1,1.14.77,1.14.81,0,.98-.66.98-1.4v-2.45h1.21v4.71h-1.21v-.62Z"/>
          <path class="cls-1" d="M43.71,20.66v-.6c-.31.53-.87.71-1.36.71-1.12,0-2.05-.96-2.05-2.47s.91-2.46,2.05-2.46c.6,0,1.1.26,1.36.71v-2.24h1.21v6.35h-1.21ZM43.76,18.31c0-.95-.44-1.53-1.1-1.53-.63,0-1.08.62-1.08,1.54s.45,1.53,1.08,1.53c.67,0,1.1-.57,1.1-1.54Z"/>
          <path class="cls-1" d="M47.22,14.32v1.12h-1.21v-1.12h1.21ZM47.22,15.95v4.71h-1.21v-4.71h1.21Z"/>
          <path class="cls-1" d="M47.99,18.32c0-1.66,1.17-2.47,2.37-2.47s2.36.81,2.36,2.47-1.17,2.46-2.36,2.46-2.37-.82-2.37-2.46ZM49.21,18.32c0,.99.47,1.52,1.14,1.52s1.14-.53,1.14-1.52-.47-1.52-1.14-1.52-1.14.53-1.14,1.52Z"/>
        </g>
      </g>
      <g>
        <path class="cls-1" d="M13.9,5.78c1.3,0,2.79.18,2.79,2.1,0,1.62-1.29,2.01-2.76,2.01h-.95v2.23h-1.25v-6.35h2.17ZM12.98,6.76v2.16h1.03c.77,0,1.39-.19,1.39-1.03,0-1.04-.81-1.13-1.48-1.13h-.95Z"/>
        <path class="cls-1" d="M18.48,5.78v3.67c0,1.12.23,1.79,1.38,1.79s1.37-.67,1.37-1.79v-3.67h1.25v3.66c0,2.09-.76,2.8-2.62,2.8s-2.64-.71-2.64-2.8v-3.66h1.25Z"/>
        <path class="cls-1" d="M29.02,10.05c-.17,1.29-1.23,2.2-2.75,2.2-1.89,0-2.97-1.29-2.97-3.32s1.16-3.26,3-3.26c1.49,0,2.5.85,2.71,2.17h-1.19c-.24-.88-.83-1.17-1.53-1.17-.96,0-1.7.79-1.7,2.26s.74,2.32,1.66,2.32c.75,0,1.37-.33,1.58-1.2h1.19Z"/>
        <path class="cls-1" d="M35.17,5.78v6.35h-1.25v-2.74h-2.85v2.74h-1.25v-6.35h1.25v2.59h2.85v-2.59h1.25Z"/>
        <path class="cls-1" d="M41.34,10.43l.87-4.65h1.28l-1.41,6.35h-1.48l-.96-4.73-.96,4.73h-1.48l-1.41-6.35h1.3l.95,4.62.88-4.62h1.46l.97,4.65Z"/>
        <path class="cls-1" d="M46.89,12.25c-1.89,0-3.11-1.32-3.11-3.29s1.22-3.28,3.11-3.28,3.11,1.31,3.11,3.28-1.22,3.29-3.11,3.29ZM46.89,11.25c.99,0,1.81-.8,1.81-2.29s-.82-2.29-1.81-2.29-1.81.8-1.81,2.29.82,2.29,1.81,2.29Z"/>
        <path class="cls-1" d="M53.47,9.65h-1.33v2.49h-1.25v-6.35h2.08c2.09,0,2.89.6,2.89,1.93,0,.74-.35,1.33-1.15,1.67l1.41,2.75h-1.39l-1.26-2.49ZM52.14,6.76v1.91h1.03c.98,0,1.4-.32,1.4-.95,0-.74-.61-.96-1.46-.96h-.97Z"/>
        <path class="cls-1" d="M58.07,8.69l2.59-2.91h1.46l-2.34,2.56,2.51,3.79h-1.48l-1.88-2.86-.88.96v1.91h-1.25v-6.35h1.25v2.91Z"/>
        <path class="cls-1" d="M64.31,9.35c-1.02-.21-1.9-.74-1.9-1.84,0-1.28,1.37-1.84,2.53-1.84,1.31,0,2.43.77,2.5,1.99h-1.21c-.1-.74-.74-.99-1.34-.99s-1.23.22-1.23.79c0,.45.37.69.88.79l.83.15c1.03.19,2.17.59,2.17,1.91s-1.3,1.94-2.57,1.94c-1.56,0-2.59-.84-2.71-2.21h1.21c.14.94.79,1.21,1.54,1.21.56,0,1.27-.21,1.27-.88,0-.53-.5-.75-1.17-.87l-.81-.15Z"/>
        <path class="cls-1" d="M28.22,17.88c-1.02-.21-1.9-.74-1.9-1.84,0-1.28,1.37-1.84,2.53-1.84,1.31,0,2.43.77,2.5,1.99h-1.21c-.1-.74-.74-.99-1.34-.99s-1.23.22-1.23.79c0,.45.37.69.88.79l.83.15c1.03.19,2.17.59,2.17,1.91s-1.3,1.94-2.57,1.94c-1.56,0-2.59-.84-2.71-2.21h1.21c.14.94.79,1.21,1.54,1.21.56,0,1.27-.21,1.27-.88,0-.53-.5-.75-1.17-.87l-.81-.15Z"/>
        <path class="cls-1" d="M32.46,14.67h1.21v1.28h.98v.83h-.98v2.43c0,.48.17.58.6.58h.37v.87h-.88c-1.09,0-1.29-.33-1.29-1.27v-2.61h-.67v-.83h.67v-1.28Z"/>
        <path class="cls-1" d="M38.32,20.04c-.27.48-.79.74-1.38.74-1.13,0-1.59-.69-1.59-1.85v-2.98h1.21v2.71c0,.63.1,1.14.77,1.14.81,0,.98-.66.98-1.4v-2.45h1.21v4.71h-1.21v-.62Z"/>
        <path class="cls-1" d="M43.71,20.66v-.6c-.31.53-.87.71-1.36.71-1.12,0-2.05-.96-2.05-2.47s.91-2.46,2.05-2.46c.6,0,1.1.26,1.36.71v-2.24h1.21v6.35h-1.21ZM43.76,18.31c0-.95-.44-1.53-1.1-1.53-.63,0-1.08.62-1.08,1.54s.45,1.53,1.08,1.53c.67,0,1.1-.57,1.1-1.54Z"/>
        <path class="cls-1" d="M47.22,14.32v1.12h-1.21v-1.12h1.21ZM47.22,15.95v4.71h-1.21v-4.71h1.21Z"/>
        <path class="cls-1" d="M47.99,18.32c0-1.66,1.17-2.47,2.37-2.47s2.36.81,2.36,2.47-1.17,2.46-2.36,2.46-2.37-.82-2.37-2.46ZM49.21,18.32c0,.99.47,1.52,1.14,1.52s1.14-.53,1.14-1.52-.47-1.52-1.14-1.52-1.14.53-1.14,1.52Z"/>
      </g>
    </g>
  </g>
</svg>