<?xml version="1.0" encoding="UTF-8"?>
<svg id="Layer_2" data-name="Layer 2" xmlns="http://www.w3.org/2000/svg" viewBox="0 0 183.53 183.32">
  <defs>
    <style>
      .cls-1 {
        fill: #ef60d1;
      }

      .cls-2 {
        fill: #3a191c;
      }

      .cls-3 {
        fill: #ff43ce;
      }
    </style>
  </defs>
  <g id="_3" data-name="3">
    <g>
      <rect class="cls-3" x="39.37" y="114.28" width="108.67" height="33.85"/>
      <path class="cls-1" d="M170.72,183.32H12.1c-6.68,0-12.1-5.42-12.1-12.1v-77.45c0-6.68,5.42-12.1,12.1-12.1h27.03c4.91,0,6.59-6.53,2.29-8.9L6.71,53.63c-3.86-2.14-6.26-6.2-6.26-10.6V12.1C.45,5.42,5.87,0,12.55,0h54.74c6.68,0,12.1,5.42,12.1,12.1v20.04c0,4.52,5.72,6.48,8.5,2.91l23.55-30.37c2.28-2.93,5.85-4.69,9.56-4.69h50.41c6.68,0,12.1,5.42,12.1,12.1v40.61c0,6.68-5.42,12.1-12.1,12.1h-20.91c-4.72,0-6.55,6.14-2.6,8.72l29.43,19.25c3.43,2.25,5.48,6.03,5.48,10.13v68.31c0,6.68-5.42,12.1-12.1,12.1ZM20.76,162.56h141.3v-54.97l-63.16-41.31c-2.14-1.4-3.71-3.36-4.61-5.58l-9.51,12.26,12.3,6.78c4.84,2.67,7.26,8.26,5.88,13.61-1.38,5.35-6.2,9.09-11.72,9.09H20.76v60.12ZM21.21,37.91l37.42,20.63V20.76H21.21v17.15ZM107.2,44.05h55.56v-23.28h-37.51l-18.06,23.28Z"/>
      <path class="cls-2" d="M173.11,21.98s.01-.13-.02-.16c0,0,0,0,0,0,0,0,0,0,0,0-.05-.06-.08-.11-.08-.2,0-.01,0-.03,0-.04.02-.02.04-.05.06-.08.06-.06.05-.14-.01-.2,0-.04,0-.08,0-.12-.03-.03-.03-.13-.02-.14.06-.05.02-.08,0-.13-.01-.03-.02-.06-.03-.09,0-.05,0-.1,0-.14,0-.02.01-.05.03-.08,0-.05,0-.11,0-.16.05-.09.11-.15.03-.33-.03-.07-.05-.14-.05-.21,0-.03,0-.06,0-.1,0,0,0-.02,0-.02,0,0,0,0,0,0,0-.01,0-.02,0-.04-.02-.12,0-.23.1-.33.04-.04.05-.19.01-.23-.06-.06-.06-.39-.02-.48.02-.04,0-.1-.03-.14-.03-.04-.05-.08-.06-.12,0-.06,0-.12,0-.18,0-.04.04-.21.06-.26.05-.09.03-.22.03-.34-.01-.03-.07-.14-.09-.17,0,0,0-.02,0-.03,0,0-.01-.05-.02-.05-.01-.09,0-.18,0-.26,0,0,0,0,0,0,0-.04,0-.08,0-.12,0-.08-.01-.16,0-.23.01-.18.05-.34.1-.49,0-.02,0-.04-.02-.06-.04-.09-.09-.17-.08-.27,0-.56,0-1.12,0-1.67-.02-.1-.03-.21-.03-.33,0-.17.02-.32.05-.47,0-.02,0-.04,0-.06-.06-.13,0-.29-.01-.43-.01-.31,0-.61,0-.92,0-.08.03-.22,0-.23-.18-.1-.09-.29-.16-.43-.17-.37-.4-.67-.69-.94,0,0-.41-.17-.41-.17-.21-.03-.44.08-.61-.12-.26,0-.52,0-.78,0-.05,0-.09.06-.14.09-.08.05-.15.04-.2-.04-.13-.2-.33-.2-.53-.18-.17.17-.33.19-.51,0-.02-.02-.1-.02-.11,0-.08.12-.19.12-.32.12-.18,0-.66-.01-.83-.02,0,0-.07,0-.1-.01-.24-.09-.39-.11-.61,0-.1.05-.19.05-.28.05-.54,0-1.08.01-1.63.02-.09,0-.18,0-.28-.06-.15-.09-.3-.08-.44-.02-.05.02-.1.08-.14.09-.76.01-1.53.02-2.29.02-.13,0-.21-.16-.37-.12-.15.03-.32,0-.48.01-.11,0-.24-.05-.34.05-.14.15-.2-.14-.35-.05-.07.05-.2-.03-.27.07-.05.07-.09.03-.13-.01-.06-.07-.14-.08-.2-.01-.1.12-.18.11-.3,0-.07-.06-.63-.04-.78-.04-.04,0-.08-.01-.13-.03-.05,0-.1,0-.16,0-.06.05-.14.05-.22.05-.66,0-1.33.01-1.99.02-.14,0-.28.03-.38-.12-.03-.04-.09-.04-.11,0-.09.15-.24.12-.37.12-.14,0-.29-.02-.42,0-.16.04-.24-.13-.37-.13-.26,0-.52,0-.78.01-.25.02-.52-.09-.73.13-.23-.04-.48.11-.68-.1-.21,0-.43.01-.65.02-.06.1-.16.1-.26.1-.62,0-1.25,0-1.87.02-.14,0-.19-.13-.31-.13-.16,0-.32,0-.48,0-.15,0-.81.2-.95.07-.16-.15-.36.04-.5-.12-.02-.02-.08-.04-.08-.04-.08.13-.21.1-.32.1-.82,0-1.65.01-2.47.02-.12,0-.23,0-.32-.11-.01-.02-.12,0-.15.03-.16.14-.34.12-.49.03-.1-.06-.12.01-.18.02-.24.03-.5.13-.73-.06-.03-.03-.12-.02-.16,0-.06.05-.11.11-.2.1-.16-.02-.33.04-.48-.01-.09,0-.19,0-.28,0-.07.02-.15.02-.22.02-.16,0-.32,0-.48,0h-.54c-.16,0-.32,0-.48.01-.18.02-.33-.05-.5-.11-.09-.04-.2-.02-.3,0-.28.04-.6-.11-.85.13-.16,0-.34.04-.47-.03-.11-.06-.21-.09-.33-.09-.13,0-.27-.03-.38.11-.03.04-.18.05-.22.01-.17-.17-.37-.1-.56-.11-.12,0-.17.15-.31.13-.22-.02-.44-.01-.66,0-.13,0-.21-.08-.32-.11-.09-.03-.65-.03-.86-.01-.24.02-.48,0-.72.01-.02,0-.04,0-.06,0-.03.02-.07.04-.09.07-.06.08-.1,0-.13-.03-.04-.05-.06-.05-.09,0-.05.08-.15.13-.2.07-.1-.1-.2-.11-.32-.11-.38,0-.76,0-1.15.01-.12,0-.22,0-.33-.08-.12-.08-.3-.07-.44.03-.03.02-.06.06-.1.06-.14,0-.28,0-.42,0h-.36c-.14,0-.28-.01-.42.01-.11.02-.19-.04-.28-.08-.07,0-.14.01-.21.02,0,0-.02.02-.03.02-.04.05-.06.05-.09,0,0,0-.02-.02-.02-.02-.03,0-.07,0-.1,0-.15.14-.34.07-.51.07-.42.02-.84,0-1.27.02-.21,0-.43-.06-.62.12-.05.05-.13.05-.17,0-.19-.18-.41-.1-.62-.11-.08,0-.14-.02-.22-.07-.18-.1-.39-.1-.56,0-.16.09-.27.11-.42,0-.09-.07-.12.1-.23.09-.29-.01-.57,0-.86,0-.02.04-.04.08-.06.12-.04,0-.09,0-.1-.02-.07-.12-.23-.06-.3-.17-.03-.05-.05-.05-.09,0-.1.14-.26.06-.39.09-.13.02-.21.17-.37.13-.2-.06-.38.06-.54.15-.1.06-.14.08-.22,0-.02-.02-.12,0-.16.02-.17.13-.36.21-.54.32-.02-.02-.14.07-.18.13-.04.04-.11.11-.09.12-.07.1-.12.23-.22.33-.11.11-.28.18-.29.37,0,.12-.12.16-.19.24-.06.05-.11.11-.17.16-.14.14-.27.28-.4.42-.09.04-.2.19-.2.2-.16.17-.28.36-.37.57-.01.03-.01.09-.04.1-.22.17-.32.47-.62.54-.04,0-.04.15-.09.2-.05.05-.13.06-.2.1,0,0,0,.04,0,.06-.01.13-.16.22-.12.38.03.11-.12.15-.17.23-.14.29-.32.53-.63.65-.09.03-.15.14-.21.21-.04.04-.07.11-.06.16.01.1-.04.2-.11.27-.1.09-.2.19-.29.3-.03.04-.06.08-.08.12-.05.09-.09.19-.17.27-.1.1-.15.26-.26.38-.11.11-.28.18-.29.37-.01.17-.27.19-.24.39-.12.15-.22.33-.44.36-.07.11-.29.09-.3.25,0,.03,0,.07.02.11.01.03-.05.1-.09.14-.21.22-.42.44-.63.66-.05.06-.12.1-.11.2.02.19-.07.29-.25.35-.17.05-.26.17-.23.36.02.13-.02.22-.12.32-.18.18-.36.36-.53.55-.15.4-.41.7-.74.89-.05.08-.06.18-.17.23-.05.07-.11.13-.17.19-.02.05-.04.11-.06.16,0,0,0,.01,0,.02.01.03-.03.1-.04.1,0,0-.01,0-.02,0-.08.14-.18.25-.28.36-.02.11-.09.19-.18.26-.07.07-.14.14-.21.22-.13.14-.28.27-.4.42-.09.1-.09.26-.21.34-.13.09-.21.23-.25.38-.28.23-.39.6-.67.82-.06.05-.08.13-.12.19-.12.2-.27.39-.5.48-.16.06-.23.2-.21.38,0,.07-.04.1-.11.11-.04,0-.1.02-.1.04-.02.2-.16.33-.31.42-.13.07-.24.11-.2.28,0,.03-.02.08-.04.1-.11.12-.22.24-.34.35-.13.12-.12.33-.29.43-.17.1-.16.35-.33.48-.07.05-.1.16-.13.25-.07.19-.18.34-.36.47-.09.06-.15.14-.21.23-.09.14-.29.21-.33.4-.03.18-.2.25-.29.37-.09.11-.07.27-.21.34-.07.03-.19.05-.2.09-.02.21-.19.3-.31.42-.11.12-.2.24-.25.39-.02.07-.04.16-.09.21-.05.05-.14.05-.2.1-.06.05-.14.09-.13.19,0,.08-.03.12-.09.13-.09,0-.14.02-.15.13-.02.18-.27.23-.26.45,0,.03-.06.05-.08.09-.12.18-.37.25-.38.52-.17.18-.34.35-.51.52-.06.06-.06.14-.09.21-.05.1-.15.18-.23.27.05.23-.21.12-.27.25-.04.09-.17.14-.2.22-.03.1-.05.19-.14.25-.17.12-.25.31-.32.48-.07.18-.2.29-.31.42-.28.05-.39.32-.58.48-.13.12-.32.71-.42.81-.18.17-.34.35-.51.52-.05.05-.14.05-.2.09-.09.08.01.22-.05.28-.1.09-.08.22-.16.3-.1.1-.18.22-.3.3-.13.09-.11.25-.2.35-.08.08-.23.07-.24.13-.06.24-.25.35-.39.51-.14.16-.19.39-.37.52-.12.09-.22.21-.26.38-.03.11-.19.14-.21.28-.02.15-.17.22-.25.32-.17.21-.42.36-.51.65-.02.06-.11.12-.18.14-.18.05-.26.16-.25.35,0,.05-.03.12-.06.15-.18.15-.2.43-.42.57-.06.04-.12.1-.11.2,0,.16-.2.05-.21.14-.02.16-.13.24-.22.34-.08.09-.21.16-.24.27-.05.14-.12.21-.25.25,0,0,0,0-.01.01-.01.17-.15.26-.25.38-.05.06-.11.1-.14.19-.03.13-.32.53-.41.62-.14.15-.28.29-.42.44,0,.25-.23.31-.34.47-.04.06-.12.12-.13.19-.04.26-.38.3-.37.58,0,.01-.03.04-.04.04-.16-.02-.16.1-.22.21-.04.08-.07.18-.12.26-.05.09-.14.15-.21.22-.11.12-.22.25-.34.35-.13.1-.12.3-.25.39-.11.07-.35.56-.49.65-.1.06-.18.16-.25.26-.07.09-.21.14-.21.28,0,.19-.2.08-.25.19-.01.04-.07.05-.08.09-.03.11-.08.22-.15.3.05.21-.2.11-.22.2-.02.16-.14.23-.21.34-.07.1-.08.26-.25.26-.01,0-.03.07-.03.1,0,.12-.13.15-.17.23-.05.08-.07.19-.13.24-.05.04-.15,0-.17.11-.02.09-.1.17-.11.26-.01.12-.1.2-.17.23-.11.05-.2.06-.21.22,0,.1-.19.17-.21.27-.03.16-.15.21-.23.32,0,.01,0,.03-.01.05.01.09-.03.12-.08.14-.07.12-.16.24-.25.33-.13.22-.3.4-.5.54-.13.34-.35.61-.62.81-.04.06-.08.11-.14.16-.16.14-.32.29-.39.51-.03.09-.17.16-.17.23,0,.2-.18.11-.24.2-.03.05-.12.09-.12.13.02.15-.1.21-.18.3-.07.08-.15.14-.21.22-.07.09-.1.21-.18.28-.05.04-.16,0-.16.12,0,.12-.09.18-.16.23-.1.07-.05.18-.12.26-.06.07-.08.17-.13.25-.03.05-.09.13-.13.12-.12,0-.18.07-.25.14-.07.09-.19.14-.18.3,0,.05-.11.11-.16.18-.05.08-.3.35-.34.46,0,.02-.06.03-.1.04-.12.04-.22.12-.23.24,0,.06-.08.19-.17.32,0,0,0,0,0,0,0,0,0,0,0,0-.08.11-.16.21-.2.25-.08.08-.14.2-.29.18-.01,0-.05.1-.05.15,0,.08,0,.15-.07.22-.08.08-.05.23-.17.3-.12.06-.09.21-.17.3-.14.15-.27.31-.43.43-.18.14-.23.36-.37.53-.03.03-.06.05-.09.07-.07.14-.34.37-.37.39-.11.08-.36.07-.27.32,0,0,0,.01,0,.02-.01.01-.02.03-.03.04-.02.01-.05.02-.08.02-.12.01-.21.15-.35.1-.02,0-.09.03-.09.04,0,.23-.64.36-.78.41-.09.03-.16.08-.25.06-.15-.03-.25.04-.33.15-.07.09-.11,0-.16-.02-.12-.03-.61.06-.73.06-.24,0-.49-.01-.73-.02-.05.04-.18.07-.18.05-.02-.04-.14-.03-.22-.03-.15,0-.3.01-.41-.1-.12,0-.23-.02-.35-.05-.02.01-.04.03-.06.03-.09.02-.18.01-.27-.06-.06-.05-.61-.14-.76-.11-.1.02-.18-.03-.24-.11-.13-.16-.28-.29-.52-.25-.07.01-.16-.06-.23-.11-.09-.06-.16-.15-.25-.21-.09-.06-.21.02-.31-.08-.08-.09-.22-.1-.31-.2-.09-.11-.19-.24-.32-.29-.19-.07-.27-.24-.41-.35-.09-.07-.03-.17-.05-.25-.04-.14-.25-.17-.22-.35,0-.01-.02-.04-.04-.04-.11-.02-.51-.76-.69-1.04-.02-.03-.03-.06-.04-.09-.05-.16.16-.41-.18-.47-.02,0-.02-.1-.03-.15-.03-.14.05-.3-.01-.43,0-.32,0-.64,0-.96-.03-.14-.05-.28-.05-.44,0-.03,0-.05,0-.07-.09-.08-.15-.17,0-.29,0-.01,0-.03,0-.04-.04-.08-.1-.15,0-.22,0-.03,0-.06,0-.09,0-.08-.02-.16-.02-.24.01-.11.02-.2.03-.25.02-.33.02-.66.03-.99,0-.12-.05-.26.1-.34,0-.16,0-.32.01-.48-.12-.07-.09-.19-.08-.29,0-.03,0-.07,0-.1-.04,0-.08.01-.12.02,0-.02-.01-.03-.02-.04-.02-.03-.04-.07-.04-.1,0-.14,0-.29,0-.43.19-.13.1-.33.11-.5.01-.18-.03-.35.11-.51.04-.04.02-.19-.02-.23-.11-.1-.1-.21-.1-.33,0-.1.02-.23-.03-.29-.09-.1-.06-.15,0-.2,0-.02,0-.03,0-.05-.08-.08-.1-.17-.1-.29,0-.78-.01-1.55-.02-2.33,0-.06-.03-.15,0-.18.22-.21.07-.46.1-.69,0-.06-.11-.16-.09-.18.21-.23.08-.43-.02-.65-.03-.06-.01-.18.03-.22.08-.09.08-.17.08-.28,0-.16-.05-.33.11-.44.02-.01.02-.1,0-.11-.18-.12-.09-.31-.13-.47-.03-.16-.04-.32,0-.48.05-.2-.17-.28-.13-.49.04-.26,0-.53,0-.8,0-.08-.02-.2.02-.23.14-.12.09-.26.09-.39,0-.22,0-.45,0-.67,0-.06,0-.14-.03-.17-.19-.17-.03-1.08.02-1.32.04-.18-.09-.29-.12-.44-.03-.18-.01-.37-.01-.55,0-.18-.04-.36.12-.5,0-.31,0-.61-.01-.92,0-.03-.04-.06-.05-.1-.09-.24-.12-.6,0-.86.05-.12-.05-.12-.06-.18-.01-.1,0-.2-.02-.3-.01-.1.09-.13.12-.2.04-.09-.05-.21.05-.29.09-.08.05-.11-.01-.18-.06-.07-.05-.14.02-.21.09-.08.09-.17,0-.25-.07-.07-.05-.11-.07-.36-.02-.23.11-.49-.12-.69-.02-.02.01-.12.05-.15,0,0,.01-.02.02-.03-.02-.11-.03-.23-.03-.36,0-.12,0-.24.03-.35,0,0-.02-.02-.02-.03-.03-.05-.05-.11-.05-.16,0-.16-.06-.36,0-.48.07-.13.09-.25.11-.39.02-.19.05-.19-.03-.26-.12-.12-.15-.23-.08-.37,0-.02.02-.03.03-.05.1-.16.09-.17-.02-.37-.07-.14-.09-.26.03-.38.09-.08.03-.19.03-.29,0-.06-.17-.07-.06-.17.13-.12-.06-.14-.06-.23,0-.14-.03-.29,0-.43.03-.1.09-.21.15-.3.04-.07.08-.1,0-.18-.08-.1-.13-.23-.16-.36,0-.03-.01-.06-.02-.09-.01-.08,0-.17.03-.21.17-.18.08-.38.09-.58,0-.04-.1-.1-.09-.14,0-.07.08-.12.09-.19,0-.07,0-.14,0-.2-.06-.19-.09-.4-.1-.63,0-.23.03-.44.09-.63,0-.09.01-.19,0-.28-.02-.1-.02-.2.08-.27,0,0,0-.07-.02-.08-.1-.08-.07-.19-.06-.28,0-.09.18-.18,0-.27,0-.1,0-.21-.02-.3-.02-.09-.1-.17-.11-.26-.01-.07-.05-.17.03-.23.07-.06.08-.13.08-.21,0-.12,0-.24,0-.37.17-.09.04-.18,0-.27-.03-.05-.03-.12-.07-.15-.09-.1-.07-.17.01-.26.08-.08.05-.23.17-.3.02-.01.03-.11-.04-.16-.02-.02-.05-.04-.07-.06.03-.07,0-.11-.05-.22,0,0,0,0,.01-.01.02-.03.03-.08.02-.11-.02-.05-.1-.1-.1-.14,0-.06.07-.11.09-.17.05-.06.03-.13.02-.2,0,0,0,0,0-.01,0,0,0,0,0,0,0-.02,0-.03,0-.05,0-.02-.01-.03-.03-.04,0,0,0-.02,0-.03-.02-.03-.04-.06-.05-.08,0,0,0-.01.02-.02.13-.12-.06-.14-.06-.23,0-.14-.03-.29,0-.43.03-.1.09-.21.15-.3.04-.07.08-.1,0-.18-.08-.1-.13-.23-.16-.36,0-.02-.01-.05-.01-.08,0-.06,0-.12,0-.18-.01-.14,0-.29,0-.43,0-.11.01-.19.1-.27.03-.03.01-.11,0-.16-.02-.05-.09-.09-.09-.14-.01-.18-.02-.37,0-.55.01-.17-.09-.37.11-.5,0-.24,0-.49,0-.73-.24-.21-.1-.5-.12-.75-.02-.24-.01-.49,0-.74,0-.14-.03-.29.05-.41.01-.09.03-.19.06-.27,0-.03-.01-.07-.04-.11-.12-.19-.11-.2-.01-.37.04-.08.09-.15.03-.21-.08-.08-.1-.16-.1-.27,0-.13,0-.24.11-.33.02-.01,0-.12-.03-.16-.12-.11-.09-.19,0-.3.07-.08-.1-.12-.09-.24.02-.26.03-.54,0-.8-.04-.27.15-.48.16-.74,0-.05.11-.1.01-.18-.06-.05-.18-.39-.18-.5,0-.2-.14-.64-.14-.67-.06-.1-.11-.21-.18-.3-.09-.11-.18-.23-.3-.3-.14-.07-.26-.16-.38-.26,0,0-.01-.01-.03-.02.04-.09-.15-.12-.23-.19-.06-.05-.13-.07-.2-.08-.1-.01-.17-.04-.41-.04-.15-.04-.27-.06-.3-.03-.01,0-.02.02-.03.03-.03,0-.05-.02-.08-.03-.35-.12-.35-.12-.65,0-.19.07-.33.05-.61-.05-.08-.03-.18.15-.26-.01,0,0-.03,0-.04.01-.1.18-.37,0-.46.22,0,.02-.1.02-.11,0-.1-.14-.24-.12-.38-.12-.28,0-.56,0-.84,0-.17,0-.69.17-.77.07-.11-.14-.33.01-.41-.17,0-.01-.04-.02-.05-.01-.15.02-.33-.06-.43.12-.14,0-.28-.02-.42.02-.14.03-.26.13-.43.13-.29-.01-.58-.01-.87-.01-.23,0-.46,0-.69.01-.18,0-.31-.03-.41-.18-.02-.03-.06-.05-.09-.07-.02,0-.04,0-.06,0-.27-.03-.55.1-.8-.12-.02-.02-.08,0-.11.02-.06.06-.11.11-.2.1-.14,0-.28,0-.42,0h-.42c-.14,0-.28-.02-.42,0-.16.03-.25-.11-.37-.12-.15-.02-.95.23-1.17,0,0,0-.02,0-.03-.01-.05,0-.11,0-.16,0-.01,0-.03.01-.04.02-.07.06-.13.11-.19.04-.02,0-.04,0-.07,0-.11.09-.25.08-.39.08-1.63,0-3.25,0-4.88.03-.21,0-.36-.12-.54-.17-.11-.03-.1-.05-.17,0-.06.05-.12.15-.18.15-.24.01-.48,0-.72,0-.12-.17-.29-.09-.44-.1-.08,0-.11.16-.17.09-.12-.14-.15.03-.22.03-.28.01-.56,0-.84,0-.09-.15-.24-.11-.37-.12-.09,0-.14.06-.21.09-.04.02-.11-.07-.18-.08-.05,0-.11.03-.15.07-.1.09-.17.05-.25-.02-.09-.07-.11-.08-.2,0-.07.05-.13.08-.21.08-.38,0-.76,0-1.15,0-.1,0-.22.03-.29-.01-.08-.05-.17-.08-.25-.13-.1-.06-.13-.08-.23,0-.06.05-.19,0-.29.03-.09.02-.17.11-.25.11-.15.01-.32.06-.43-.11-.22,0-.44,0-.66,0-.1,0-.12.11-.19.12-.08.02-.18.03-.23,0-.08-.06-.15-.13-.26-.11-.11.01-.24-.03-.32.1-.22,0-.44.02-.65.02-.12,0-.24.02-.32-.11-.15,0-.33-.04-.44.05-.06.05-.15.07-.23.06-.19-.03-.41.1-.56-.12-.19.04-.38-.06-.57.08-.16.11-.37.09-.56,0-.03-.02-.06-.06-.09-.04-.01,0-.02.01-.04.03-.05.07-.15.11-.2.04-.08-.11-.23-.06-.3-.17-.03-.05-.06-.06-.09-.01-.14.2-.72.07-.83.09-.06,0-.36.05-.41.08-.05.02-.11.04-.16.05-.14.01-.26,0-.38-.11-.05-.05-.2,0-.29-.01-.06-.01-.11-.06-.17-.1-.01,0-.02,0-.03,0-.06.07-.14.1-.23.11-.02,0-.03.03-.04.04-.12.1-.24.1-.37,0-.02-.01-.04-.02-.06-.03-.03-.01-.07-.02-.1-.02-.1-.02-.24.01-.28-.04-.14-.19-.18.06-.28.05-.18-.02-.65-.03-.74,0-.05.02-.26,0-.32,0-.22-.01-.44,0-.66,0-.17-.01-.35.06-.51-.03-.07,0-.14,0-.21,0-.06.03-.13.04-.21.04-.23.02-.48-.09-.68.12-.02.02-.1,0-.11-.01-.08-.12-.2-.11-.32-.11-.23.02-.76.12-.78.1-.07-.1-.16-.09-.27-.09-.12,0-.4-.01-.5,0-.23.03-.48-.08-.67.12,0,.01-.04,0-.06,0-.07-.04-.12-.1-.19-.12-.09-.03-.2.03-.27-.07-.06-.09-.1-.01-.15.03-.04.03-.08.07-.11.11-.04.05-.05.06-.09,0-.08-.13-.25-.12-.32-.06-.17.14-.3.17-.46,0-.06-.05-.09.13-.16.07-.06-.05-.12-.11-.21-.09-.08.01-.15-.02-.21-.08-.11-.1-.12.11-.23.09-.13-.03-.28-.02-.42,0-.12.02-.16-.12-.24-.1-.04,0-.08.05-.11.1-.15.2-.71.07-.83.08-.06,0-.52.12-.57.13-.14.01-.87-.12-1.11-.1-.07,0-.12,0-.13.01-.11,0-.22,0-.34,0,0,0-.06,0-.09,0-.12,0-1.81,0-2.13.01-.12,0-.17-.1-.25-.12-.11-.02-.25-.04-.35.01-.09.05-.12.09-.23,0-.08-.06-.38-.01-.4,0-.2.08-1.38.1-1.53.1-.52,0-1.04,0-1.57,0-.6,0-1.21.02-1.81,0-.2,0-.31.13-.47.19-.1.04-.17.17-.26.25-.08.07-.1.16-.13.25-.02.07-.11.11-.1.2,0,.1.02.22-.03.29-.06.09-.1.17-.09.27,0,.04,0,.09.03.11.06.06.1.12.09.21,0,.08-.04.32-.07.56h0,0s0,0,0,0h0s0,.49,0,.49c-.03.25-.06.49-.04.54.05.14.02,1.13.02,1.27,0,.06,0,.29,0,.39,0,.57.01,1.15.02,1.72,0,.01,0,.02,0,.03v.95c0,.08,0,.16.01.24v.05c0,.17-.18.29-.13.49.02.06.02.12.02.18,0,0,0,.01,0,.02-.02.05-.01.1,0,.14,0,.05,0,.1-.01.15,0,.12.08.21.12.31,0,.05,0,.32,0,.32-.01.07-.04.15-.09.22-.06.08-.02.23-.02.35.08.07.11.15.12.24v.28s0,.05,0,.08v.16c0,.06,0,.11,0,.17v.13s-.12.15-.11.25c0,.08-.04.17.04.23.07.05.08.13.08.21,0,.14,0,.42,0,.42v.35c-.01.06-.04.12-.06.18-.08.18-.09.39.02.57.02.04.04.07.05.11v.74s.01.45.01.45c0,0,0,.02-.01.02-.14.11-.09.26-.09.39,0,.12,0,.25,0,.37,0,.11.07.17.11.27v.21s0,.02,0,.04c-.3.75-.3,1.58,0,2.33,0,0,0,.02,0,.03-.02.05-.04.11-.08.16-.06.08-.02.23-.02.35,0,0,0,0,.01.01-.01.1.02.2.09.34.01.02.02.06.03.09,0,.03,0,.05,0,.08-.14.1-.09.25-.11.38,0,.04,0,.13,0,.21,0,.05,0,.1,0,.15,0,.02,0,.03,0,.05,0,.07-.03.14.01.2,0,.05,0,.09,0,.14,0,0,0,0,0,0,0,0,0,.01,0,.02,0,.14-.03.29.04.41.02,0,.04,0,.06,0,0,.11,0,.23,0,.34,0,.1-.04.18-.08.27-.08.18-.09.39.02.57.05.07.06.14.06.22,0,.31,0,.61,0,.92,0,.06.01.15-.02.17-.14.11-.09.26-.09.39,0,.12,0,.25,0,.37,0,.18.21.25.1.51-.3.75-.3,1.58,0,2.33.08.2.03.28-.03.39-.09.17-.06.29.04.5.02.05-.07.41-.08.55,0,.04,0,.13,0,.21,0,.13,0,.27,0,.33,0,.07,0,.14,0,.22,0,0,0,0,0,0,0,0,0,.01,0,.02,0,.14-.03.29.04.41.02.03.08,1.98.1,2.07.01.12-.1.74-.1.74,0,0,.03.25.04.29,0,0,.44.53.42.76,0,.04.08.09.12.13.07.06.12.15.24.17.09,0,.17.09.25.11.15.04.07.21.18.28.13.09.53.47.66.45.06,0,.09.04.1.11.02.16.16.22.26.32.02.01.04.02.06.03,0,0,.02-.02.03-.02.04-.01.05-.14.13-.04.1.13.38.23.52.3.16.1.34.17.51.25.1.05.18.14.3.14.06.08.15.13.23.18.01.03.02.04.03.04.02,0,.04,0,.06,0,.05.02.1.05.15.07.04.02.08.02.13.02.11.05.2.11.19.15-.01.08.03.12.1.12.17,0,.32.07.46.14,0,0,.02.01.03.02.04.02.08.04.12.07,0,0,0,0,.01,0,0,0,0,0,0,0,.1.05.21.1.32.15.17.09.34.16.5.25.1.06.22.09.3.18.14.06.27.13.39.21.11.02.18.13.3.15.1.01.17.21.27.22.12.01.18.08.24.15.06.03.12.07.18.11.08,0,.17-.03.24.06.01.02.03.03.04.04.16.18.41.21.59.35.02,0,.05.01.07.02.19-.04.5.22.51.19.03,0,.07,0,.11,0,.07-.01.14,0,.22.04.3.16,1.21.66,1.36.77.04.02.08.05.11.07.08.03.15.06.22.09.07,0,.12.04.17.09,0,0,.02.01.03.02.2-.02.25.24.43.25.03,0,.06.01.09.02.06.03.1.1.14.15.13.17.32.22.48.3.08.04.19-.02.27.07.06.06.16.1.25.13.15.05.25.17.38.25.14.08.3.15.45.23.17.09.34.16.5.25.1.06.22.09.3.18.14.06.27.13.39.21.11.02.18.13.3.15.1.01.17.21.27.22.12.01.18.08.24.15.06.03.12.07.18.11.08,0,.17-.03.24.06.01.02.03.03.04.04.16.18.41.21.59.35.02,0,.05.01.07.02.19-.04.32.09.41.23.02.02.04.05.06.07.14.14.34.21.48.34.05.03.11.06.16.09.12.06.23.16.38.12.14-.03.22.05.3.14.05.06.11.1.2.11.13,0,.04.22.14.22.16.01.26.19.43.13.17-.06.79.41,1.01.48.03.01.06.05.09.07.08.05.11.16.23.18.09.01.17.07.25.12.37.22.82.32,1.11.69.02.02.07.02.1.04.23.12.46.25.7.36.05.02.1.03.14.08.15.18.3.3.43.28.18-.02.31.04.41.18.07.1.23.05.29.17.08.14.22.14.36.15.06,0,.16.09.17.15.03.18.13.19.28.21.16.03.31.12.45.23.25-.06.35.15.49.28.01.22.16.22.33.21.12,0,.3.14.43.28.08.08.21.12.32.18.08-.13.16-.08.21.01.08.14.24.11.34.21.06.05.28.29.47.3.09,0,.18.14.27.22.14.13.53.29.54.3.15.07.31.14.45.22.1.06.34.08.39.13.07.07.14.14.22.21.03.03.06.06.09.09.01.01.04.03.05.02.22-.07.34.1.45.23,0,0,.01,0,.02.01.1.03.2.07.3.12.02,0,.04,0,.06,0,.17-.05.41.24.43.29.02.03.05.08.07.08.13,0,.17.05.17.18,0,.06.07.07.12,0,.01-.02.32.05.47.06.05,0,.11.04.15.07.09.08.16.19.26.25.11.07.24.09.36.16.08.05.19.12.21.19.02.12.05.2.18.17.21-.05.37.09.54.17.22.09.45.2.65.32.21.14.39.34.57.53.07.07.13.08.21.07.15-.02.27.01.37.14.06.08.13.18.22.21.1.03.17.09.25.13.07.03.15.02.2.1.09.12.2.18.36.16.1-.02.19.01.26.1.09.11.2.2.3.3.06.07.12.09.21.08.14-.02.27-.01.37.13.06.08.13.17.22.21.08.04.17.06.25.13.05.04.15.01.2.09.1.16.24.19.41.17.05,0,.13,0,.16.05.09.1.24.16.26.32,0,.08.04.11.1.12.08,0,.16,0,.24,0,.15-.02.26.04.36.15.08.09.15.17.17.3,0,.05.04.03.08,0,.14-.11.28-.13.41.02.07.07.12.17.24.15.35.26.83.32,1.1.71.2,0,.29.19.42.3.04.03.11.09.15.07.16-.05.24.1.37.13.12.03.27.09.34.18.1.13.33-.09.38.18.02.12.16.21.25.31.06.06.15.05.2,0,.04-.05.07-.09.13-.02.07.07.14.14.23.18.13.08.27.13.4.2.12.06.23.12.34.21.11.1.28.13.37.26.06.08.14.05.22.05.1,0,.14.04.14.14,0,.03.03.09.05.09.08,0,.15.02.21.09.06.08.18.03.26.12.03.04.15.01.22.04.12.05.25.1.35.18.12.11.67.26.75.38.08.13.25.12.33.22.08.09.32,0,.26.25,0,.01.06.06.09.05.19-.04.88.45,1.01.49.26.09.48.29.76.35.11.15.33.11.43.29.06.1.17.17.25.26.09.11.24,0,.33.09.08.09.18.06.26.09.22.1.46.17.65.33.04.03.07.09.09.14.05.18.17.28.35.24.19-.05.3.17.5.13.13-.03.2.12.27.21.15.16.39.19.51.38.01.02.07.01.11.01.08,0,.14.02.21.07.11.08.26.09.33.22.1.16.3,0,.42.16.06.09.24.08.35.16.13.09.25.2.35.32.13.15.32.25.49.26.17,0,.25.17.43.15.17-.03.25.17.36.28.1.1.64.26.75.38.14.15.34.29.47.3.12,0,.17.1.23.17.13.14.26.23.47.2.05,0,.12.02.15.06.1.1.21.16.33.22.14.07.23.22.35.33.04.04.09.08.14.11.03.01.08,0,.11-.01.15-.05.15-.06.21,0,.12.13.29.2.44.24.12.03.24.03.3.14.07.12.21.08.3.17.08.09.17.17.26.26.03.02.07.05.1.04.16-.02.24.03.28.2.02.09.14.2.29.16.14-.03.27,0,.37.13.03.04.1.11.14.1.2-.05.29.09.4.2.07.07.19.02.26.12.02.03.11.03.16.04.05.01.12.02.16.05.12.11.23.23.35.34.02.02.42.22.46.21.09-.01.15.02.21.08.08.09.15.19.29.17.13.09.28.16.42.24.03.03.05.06.08.09.03,0,.05,0,.08,0,.08.06.16.12.23.21.06.07.41.07.51.14.07.05.18.05.24.14.05.06.11.13.17.17.13.08.27.18.41.19,0,0,.01,0,.02,0,.29.14.91.65,1.03.72.12.07.23.19.31.31.05.06,0,.2.05.25.09.1.08.35.33.26.05-.02.08.04.09.11.01.12.15.2.11.35,0,.02.03.09.04.09.24-.02.38.62.44.77.03.08.09.16.07.25-.03.15.05.25.16.33.09.07,0,.11-.01.16-.03.12.08.6.08.73,0,.24,0,.49,0,.73.2.22.08.49.11.74.01.12-.15.19-.11.35.03.12,0,.26,0,.39,0,.03-.04.06-.07.08-.04.03-.04.05,0,.08.08.07.11.15.02.23-.11.1-.22.2-.17.38.03.1-.03.17-.1.24-.16.13-.28.28-.24.52.01.07-.06.16-.11.23-.06.09-.15.16-.2.25-.06.09.02.21-.08.31-.08.08-.09.22-.2.31-.11.09-.24.2-.29.32-.07.19-.24.27-.34.42-.07.09-.17.03-.25.06-.14.04-.17.26-.35.22-.01,0-.04.02-.04.04-.02.11-.76.52-1.03.7-.03.02-.06.03-.09.04-.16.05-.42-.15-.47.19,0,.01-.03.02-.07.02-.03,0-.05,0-.08.01-.17.04-.37-.09-.52.08-.2.01-.4.03-.59.04,0,0,0,.01-.01.02-.06,0-.12,0-.18,0-.02,0-.03-.01-.04,0-.19,0-.38,0-.57,0-.15,0-.32.07-.44-.1,0,0-.06.03-.08.05-.09.09-.18.07-.25-.03-.04-.05-.05-.05-.09,0-.02.03-.06.05-.09.07-.09,0-.16-.01-.2-.02-.14,0-.28,0-.41,0-.04-.02-.08-.04-.11-.08h-.48s-.05.07-.07.09c-.1,0-.2.02-.27-.1-.16,0-.32,0-.48,0-.06.11-.16.1-.26.09-.05-.02-.1-.05-.15-.08-.12,0-.26-.02-.34.04-.03.02-.05.03-.08.05-.29,0-.59,0-.88,0-.04-.02-.07-.05-.1-.08-.14,0-.28,0-.42,0-.15,0-.32-.05-.43.12-.32,0-.64,0-.96,0-.12,0-.17-.1-.25-.12-.07-.02-.19-.03-.23.01-.1.11-.21.1-.32.1-.16,0-.32,0-.48,0-.58,0-1.17,0-1.75,0-.08,0-.18.02-.23-.03-.08-.07-.16-.1-.27-.1-.12,0-.23,0-.32.11-.02.02-.12,0-.15-.03-.06-.06-.12-.09-.21-.09-.14,0-.28,0-.37.13-.28-.05-.59.11-.86-.12-.04-.04-.19-.03-.22.01-.11.14-.25.1-.38.1-.15,0-.32.06-.44-.1-.02-.02-.13-.01-.15.02-.08.09-.17.09-.27.09-.42,0-.84,0-1.27,0-.14,0-.28.03-.37-.12-.09.02-.2-.05-.28.04-.11.12-.24.12-.37.03-.05-.03-.08-.08-.13,0-.05.08-.14.06-.22.06-.05,0-.11,0-.16,0-.65,0-1.3,0-1.95,0-.08,0-.16.01-.22-.07-.01-.02-.07-.03-.08-.02-.19.19-.42.05-.63.09-.15.02-.32-.04-.44.12-.01.02-.12-.01-.15-.04-.08-.08-.16-.12-.25-.02-.1.11-.23.1-.32.04-.09-.05-.16-.1-.26-.1-.26,0-.52-.02-.78,0-.25.02-1.19.07-1.39-.04-.02,0-.03-.03-.04-.04-.09-.05-.09-.05-.21,0-.05.03-.1.07-.15.07-.4,0-.8,0-1.21,0-.06,0-.16-.11-.18-.09-.23.2-.5.06-.75.09-.12.01-.23,0-.32.11-.04.04-.19.05-.22.01-.15-.15-.33-.11-.5-.12-.6,0-1.21,0-1.81,0-.14,0-.28-.01-.38.12-.01.02-.11-.02-.15-.05-.04-.02-.07-.1-.13-.02-.02.02-.08.05-.08.05-.08-.13-.21-.1-.32-.1-.13,0-.28-.04-.38.11-.01.02-.11,0-.16-.02-.05-.02-.1-.08-.15-.08-.24,0-.48,0-.72,0-.05,0-.1.06-.15.08-.05.02-.14.05-.16.03-.09-.12-.2-.12-.32-.11-.22,0-.44,0-.66,0-.21,0-.74.03-.82.11-.02.02-.12,0-.15-.03-.12-.12-.24-.11-.37-.04-.03.02-.06.07-.09.07-.16,0-.32,0-.48,0-.16,0-.32,0-.48,0-.05-.24-.28.12-.34-.1-.15,0-.31-.06-.45.06-.04.03-.1.05-.16.05-.16,0-.32,0-.48,0h-1.02c-.18,0-.36-.02-.54,0-.17.03-.29-.09-.43-.12-.15-.03-.32-.05-.43.11-.24,0-.48.01-.72,0-.25-.02-.52.1-.73-.12-.12,0-.27-.03-.35.03-.11.09-.21.1-.33.1-1.31,0-2.61,0-3.92,0-.12,0-.24.01-.32-.11-.02-.02-.11,0-.16.02-.24.1-.44.16-.6.04-.16-.11-.78.03-.95.05-.12.01-.61.06-.75.01-.11-.04-.23,0-.32-.11-.04-.04-.18-.05-.22-.01-.17.16-.37.1-.56.12-.1,0-.16-.13-.18-.11-.08.06-.14.12-.26.11-.12-.01-.24,0-.36,0-.12.23-.21-.06-.33-.02-.07.03-.15,0-.21.07-.06.07-.14.09-.2.02-.06-.06-.12-.09-.21-.09-.17,0-.36.07-.5-.11-.01-.02-.13.01-.15.05-.11.15-.33-.02-.42.17,0,.02-.07.02-.11.02-.12,0-.24,0-.36,0-.24-.22-.53-.1-.79-.12-.09,0-.19,0-.26-.06-.02-.01-.04-.03-.06-.06-.02-.02-.12,0-.15.02-.06.06-.12.09-.21.09-.1,0-.21-.02-.3,0-.11.03-.16-.24-.28-.04-.1.01-.19.03-.29.03-.12,0-.24,0-.36,0-.12,0-.24,0-.36,0-.05,0-.11.03-.16.05-.2.11-.41.12-.61,0-.08-.05-.14-.05-.22-.05-.2,0-.4,0-.6,0-.12,0-.23,0-.32-.11-.02-.02-.12,0-.15.03-.06.06-.13.09-.21.09-.28,0-.55,0-.83,0-.08,0-.17,0-.25,0-.09,0-.15.02-.21.08-.03.03-.14.05-.15.03-.09-.12-.2-.11-.32-.11-.34,0-.68,0-1.02,0-.11,0-.21.12-.31.11-.1-.01-.18-.14-.31-.11-.1.02-.38,0-.5,0-.38,0-.76,0-1.14,0-.17,0-.69.16-.77.07-.08-.09-.16-.11-.25-.01-.06.07-.14.07-.22.06-.24-.04-.41-.09-.59.08-.13.13-.29.56-.29.56,0,0-.27,2.56-.27,2.62,0,.25.02.49,0,.74-.02.23.05,1.01-.07,1.15-.03.04-.04.12-.03.16.03.07.11.1.11.2,0,.37,0,.74,0,1.1,0,.06-.1.17-.09.18.17.15.07.35.09.52.02.12-.01.22-.1.33-.08.09.07.16.1.25.05.12-.04.28.05.4,0,.02,0,.04,0,.06,0,.04.08.12.07.12-.16.13-.09.3-.09.46,0,.27,0,.53,0,.8,0,.01-.01.02-.02.03,0,.04,0,.07,0,.11,0,0,.01,0,.02,0,0,.08,0,.15,0,.23,0,.06.03.15,0,.18-.12.14-.18.26,0,.4.02.01,0,.12-.04.16-.08.09-.11.16-.02.26.04.04.06.1.07.15.01.08.01.16,0,.24-.01.09.19.11.06.23-.11.1.06.11.06.17,0,.17.07.37-.11.5,0,.33,0,.65,0,.98.21.13.08.25,0,.4-.05.1,0,.24,0,.36-.01.3-.02.3.08.42.08.1.07.22,0,.33-.06.11-.08.68-.08.85.01.82.01,1.64.02,2.45,0,.12.01.24.02.36.23.12-.1.21-.03.34.03.06,0,.16.09.21.05.03.05.05,0,.09-.19.15.05.45-.2.59,0,0,0,.04,0,.06,0,.02,0,.05.01.05.12.08.11.2.11.32,0,.12.02.25,0,.37-.01.09-.17.17,0,.28.04.02-.16.07-.06.16.06.06.09.13.08.21-.01.09.07.14.08.21.02.07-.06.16-.08.24-.02.08-.02.16.06.22.08.05.02.09-.01.13-.09.1-.06.18.03.25.05.04.05.06,0,.09-.08.05-.08.13-.08.21,0,.47,0,.94,0,1.41,0,.19.05.4-.11.57-.04.04-.01.16.01.23.14.41.14.42,0,.83-.02.05,0,.11.02.16.02.05.08.1.08.15.01.24,0,.49,0,.74,0,.25-.02.49,0,.74.02.23,0,.77,0,.82,0,.29,0,.57,0,.86,0,.12.1.17.12.26.02.08.02.19-.02.23-.11.1-.1.21-.09.33.01.11-.05.18-.1.27-.02.05.11.13.1.24-.01.29,0,.57,0,.86,0,.06,0,.12.04.17.14.17.1.32-.04.47v.39c0,.08-.01.17,0,.24.02.09.1.17.11.26.02.09.03.2-.07.28-.1.09-.04.17.03.25.03.04.05.14.03.16-.12.12-.17.22-.02.35.01.01-.07.15-.06.16.09.08.09.17.09.27,0,.13,0,.24-.12.32-.02.01,0,.12.04.16.07.08.11.15.03.26-.06.07-.07.18-.13.25-.08.09-.09.17,0,.26.03.03.05.06.06.1.04.33-.09.68.12.99.05.08-.09.12-.11.19-.02.1,0,.2,0,.31,0,.08.04.17-.04.23-.16.11.04.15.04.22,0,.35,0,.7,0,1.04,0,.06-.1.17-.09.18.08.08.1.17.1.27,0,.12.02.25,0,.37-.03.16.1.25.12.38.01.07,0,.16-.03.23-.02.05-.09.07-.08.15.03.19-.07.4.12.57.04.03.02.16,0,.23-.14.4-.14.39,0,.71.01.03.03.1.02.11-.15.11-.08.3-.15.43-.04.07-.09.1,0,.18.11.1.29.21.07.38,0,.12,0,.24-.03.36-.01.07-.1.17-.09.18.09.08.1.17.09.27,0,.16,0,.33,0,.49,0,.16,0,.33,0,.49,0,.16-.02.32-.03.48-.18.15.14.25.04.41-.03.04.02.15-.01.17-.16.11-.06.19.03.27.06.05.11.11.11.2,0,.16.04.34-.01.49-.06.15-.05.45-.07.48-.02.05-.05.15-.03.16.11.09.12.2.11.32,0,.14,0,.28-.01.42-.18.09-.04.31-.17.42-.07.06-.02.08,0,.13.05.08.08.18.13.25.08.09-.08.53-.08.67-.17.11-.06.19.03.26.12.09.07.14,0,.22-.02.02,0,.13.03.16.15.1-.02.4-.03.49-.01.09-.02.32,0,.39.03.13-.02.26.07.4.11.16.12.41,0,.56-.14.18-.05.78,0,.89.02.05.05.11.05.16,0,.2.02.41,0,.61-.01.21.1.45-.11.63,0,0,.02.03.03.04.09.06.08.11,0,.18-.02.02-.04.08-.03.11.02.07.11.14.09.19-.02.07-.1.11-.09.21.01.14-.03.28.11.39.04.03,0,.16.02.23.08.22-.17.36-.12.57,0,.03-.01.08-.04.1-.09.07-.06.11,0,.18.09.09-.03.24.09.33.12.09.07.23.07.34-.02.29.09.6-.11.87,0,.12.02.24.03.36.19.16-.02.86-.02,1.01,0,.16,0,.33,0,.49,0,.1.03.21-.08.27-.05.03-.04.06,0,.09.11.07.07.21.16.3.05.04.03.19,0,.28-.02.07-.11.11-.09.21.02.11-.04.19-.1.27-.02.02.09.12.1.18.02.12,0,.25,0,.37.01.12-.06.26.04.35.17.14-.09.17-.05.29.03.09,0,.21.02.3.13.43.13.42,0,.83-.04.12-.03.29.02.4.04.09.08.17.08.27,0,.67,0,1.35,0,2.02,0,.06,0,.13-.04.17-.15.14-.07.31-.07.46,0,.06.13.09.11.19-.03.23.08.49-.12.69.01.1-.04.21.06.28.06.05.05.08,0,.13-.07.06-.08.13-.03.21.03.05.09.1.09.14-.04.23.12.49-.11.69.03.15-.06.32.09.46.07.06.05.14-.01.21-.04.04-.08.08-.01.13.07.05.09.13.04.21,0,.02-.03.03-.04.04-.08.17-.11.34.02.5.07.08,0,.1-.04.13-.04.04-.04.05,0,.09.04.04.08.1.07.15-.01.07-.1.14-.09.19.02.08.13.13.09.27-.09.28-.1.58-.01.87.07.22.01.31-.07.43-.04.05-.05.19-.01.23.15.15.11.33.12.51,0,.08,0,.17,0,.24.02.12,0,.35,0,.45,0,.29,0,.58,0,.87,0,0,0,.03,0,.04,0,0,0,0,0,.01,0,.04-.03.09-.06.14-.09.16-.11.34.02.49.02.02.03.03.03.04,0,.01,0,.02-.01.03,0,0,0,0-.01.01-.13.11-.11.24-.03.37.03.04.09.07.02.13-.11.09-.1.23-.04.33.07.1.11.19.09.33-.04.28-.03.56,0,.84.03.2,0,.34-.15.45-.07.05-.09.12-.09.21,0,.14,0,.29,0,.43,0,.08-.04.17.04.23.11.07.07.22.17.3.21.19.41.39.6.6.08.09.16.1.26.1.1,0,.21-.02.3,0,.14.03.19-.13.31-.13.28,0,.56,0,.84,0,.03,0,.08.02.1.04.14.11.26.11.42,0,.08-.06.17.09.29.09.06,0,.37,0,.56-.01,0,0,0,.01,0,.02.59-.01,1.17,0,1.76-.03.29-.01.6.12.86-.1.01-.01.03,0,.04,0,.08.17.27.03.37.13.07.07.11.09.18,0,.06-.08.19-.03.25-.13.02-.03.14-.04.15-.02.07.09.15.1.24.1.04.02.08.04.13.07.1.05.11.06.2-.02.04-.03.07-.06.11-.07.03,0,.05,0,.08,0,.02,0,.04.02.06.04.02.02.08.05.08.04.03-.05.07-.08.11-.09.23,0,.46,0,.69,0,.13,0,.39,0,.64,0,.04.02.08.04.11.08.04.04.19.04.22,0,.04-.05.09-.08.13-.1.03,0,.05,0,.06,0,.17.01.77,0,.92-.01.16,0,.32,0,.48,0,.1,0,.42,0,.5,0,.18-.02.37-.04.54,0,.09.02.16-.01.23-.05.08.01.17.05.24.13.16,0,.32,0,.48-.01.07-.13.19-.12.31-.12.1,0,.19,0,.26.1,0,0,0,0,0,0,.08-.03.16-.08.24-.1.08-.02.14,0,.22.06.1.08.11.07.2.02.05-.03.07-.09.15-.09.12,0,.24,0,.36,0,.1,0,.19-.01.27.08.06.07.17-.16.25.02.21,0,.44.11.61-.1.14,0,.22,0,.36,0,.11.14.27.11.42.1.13,0,.23,0,.32.12.01.02.1.02.11,0,.09-.17.17-.05.27,0,.06.03.17.02.23-.02.2-.15.38-.15.58,0,.06.04.2.02.27-.02.07-.03.12-.1.21-.09.17.02.36-.07.49.12.12,0,.25.02.36-.02.08-.03.11-.13.22-.03.07.06.23.04.34.03.05,0,.09-.09.14-.1.21-.01.43,0,.64,0,.16.19.38.06.56.09.21-.24.49-.09.73-.13.1-.02.2,0,.3,0,.15,0,.32-.05.44.11.01.02.12-.01.15-.05.08-.08.16-.12.25-.02.06.07.14.07.22.06.46,0,.92-.01,1.39-.01.11,0,.18-.03.26-.11.08-.07.13-.03.2.11.02.03.03.09.05.1.13.01.27.04.4-.02.05-.03.09-.08.14-.09.24-.01.48-.01.72-.01.03,0,.08.01.1.04.13.15.3.08.45.06.07-.01.14-.12.25-.11s.24-.04.32.1c.17,0,.35,0,.52,0,.09-.16.25-.1.38-.11.26-.01.26,0,.52.2.05.04.05.04.09,0,.07-.06.18-.07.24-.14.11-.13.17.08.21.03.13-.15.22-.11.34,0,.04.04.14.03.2.09.11.1.12-.1.23-.09.19.02.4.06.55-.12.16,0,.32,0,.48,0,.12.17.29.1.44.1.2,0,.4,0,.6,0h1.27c.2-.02.4-.04.6-.01.21.03.37-.13.55-.12.25,0,.52-.13.74.09,0,0,.36,0,.5,0,.21.01.43-.07.62.11.02.02.1-.04.15-.06.05-.02.11-.07.15-.06.05,0,.1.1.14.09.07,0,.12-.1.19-.1.44-.01.88-.02,1.33-.02.05,0,.1.05.15.08.1.05.2.1.3.15.13.07.51-.25.62-.24.29.03.58-.08.86.11.06.04.2.04.26-.07.03-.05.05-.05.09,0,.15.15.34.12.48.02.1-.06.18-.08.27-.06.07.01.12.09.19.11.09.03.2-.03.28.06.02.02.08.04.08.03.07-.1.16-.1.26-.1.12,0,.23,0,.32.11.01.02.12,0,.15-.04.08-.08.15-.12.25-.03.04.04.1.07.15.07.24,0,.48,0,.72,0,.06,0,.12-.09.18-.09.05,0,.07.11.18.03.17-.13.38-.04.58-.07.1-.01.13.11.19.11.1,0,.76-.1,1.04-.12.03,0,.06,0,.08,0,.4,0,.8,0,1.21-.01.12,0,.24-.02.32.1.02.02.12.01.16-.01.19-.15.4-.11.61-.06.11.17.36,0,.46.2,0,.01.09.01.11,0,.07-.08.14-.12.26-.12.18,0,.36-.02.54,0,.19.02.33-.1.49-.13.15-.03.32-.03.42.14.04.07.11.11.2.09.21-.04.44.09.61-.13.2,0,.4,0,.6,0,.05,0,.13-.01.16-.05.11-.12.19-.08.3.01.1.08.23.14.36.14.22.02.43-.01.65-.02.2-.19,1.83.08,1.84.06.16-.19.33-.3.54-.07.02.02.08,0,.12,0,.14,0,.28,0,.42,0h.78c.09.13.16.05.27,0,.12-.05.28-.01.42-.02.1,0,.19,0,.27.09.02.03.13.03.15,0,.08-.08.16-.11.27-.1.11,0,.22.01.32,0,.17-.02.35.02.52-.01.15-.03.25.1.37.12.2.02.4,0,.6,0,.12,0,.22-.02.32-.12.05-.05.15,0,.2.07.03.05.05.04.09,0,.02-.03.2.02.3-.05.08-.06.21-.04.32.03.14.09.31.09.44.01.03-.02.05-.03.08-.05.12.03.26-.04.34.11.01.02.07.03.11.03.1,0,.24.03.29-.02.12-.13.25-.1.39-.1.14,0,.28,0,.42,0,.03,0,.05-.03.07-.05.14.02.24.16.4.12.06-.01.13-.02.2-.02.1.02.19.04.23.07.03.02.11-.02.15-.06.09-.09.17-.08.25,0,.02.02.07.03.08.02.06-.07.12-.09.21-.09.27,0,.53,0,.8,0,.1.1.22.04.33.06.09.02.14-.09.2-.1.08-.01.13.1.23.1.23,0,.47-.02.7-.01.15,0,.3-.04.41.12.03.04.09.04.11,0,.09-.15.24-.12.38-.13.5,0,1-.01,1.51-.01.19,0,.39-.05.56.11.06.06.17.06.22-.02.07-.09.16-.11.25-.11.05,0,.09,0,.14,0,.12,0,.22,0,.32.1.09.08.17-.08.24-.09.22-.03.44-.01.66-.03.1,0,.13.1.19.12.07.02.2.03.23,0,.11-.16.18-.02.27,0,.22.03.44.01.66,0,.23-.01.47.06.68-.12.05-.04.18-.03.27.05.12.11.25.1.36-.02.04-.04.05-.04.09-.01.18.14.35.13.53,0,.07-.05,1.13-.05,1.27-.05.46,0,.92-.01,1.39-.02.08,0,.16-.01.21.07.03.05.06.06.09.02.08-.14.21-.1.32-.09.17.01.26-.17.43-.14.06.01.11-.02.14-.06.06,0,.08,0,.14,0,.11.15.28.12.43.11.13,0,.23,0,.32.12.01.02.1.02.11,0,.09-.17.17-.05.27,0,.06.03.17.02.23-.02.2-.15.38-.15.58,0,.06.04.2.02.27-.02.07-.03.12-.1.21-.09.17.02.36-.07.49.12.12,0,.25.02.36-.02.08-.03.11-.13.22-.03.07.06.23.04.34.03.05,0,.09-.09.14-.1.21-.01.43,0,.64,0,.16.19.38.06.56.09.21-.24.49-.09.73-.13.1-.02.2,0,.3,0,.15,0,.32-.05.44.11.01.02.12-.01.15-.05.08-.08.16-.12.25-.02.06.07.14.07.22.06.46,0,.92-.01,1.39-.01.11,0,.18-.03.26-.11.08-.07.13-.03.2.11.02.03.03.09.05.1.13.01.27.04.4-.02.05-.03.09-.08.14-.09.24-.01.48-.01.72-.01.03,0,.08.01.1.04.13.15.3.08.45.06.07-.01.14-.12.25-.11.11.01.24-.04.32.1.17,0,.35,0,.52,0,.09-.16.25-.1.38-.11.26-.01.26,0,.52.2.05.04.05.04.09,0,.07-.06.18-.07.24-.14.11-.13.17.08.21.03.13-.15.22-.11.34,0,.04.04.14.03.2.09.11.1.12-.1.23-.09.19.02.4.06.55-.12.16,0,.32,0,.48,0,.12.17.29.1.44.1.2,0,.4,0,.6,0h1.27c.2-.02.4-.04.6-.01.21.03.37-.13.55-.12.25,0,.52-.13.74.09,0,0,.36,0,.5,0,.21.01.43-.07.62.11.02.02.1-.04.15-.06.05-.02.11-.07.15-.06.05,0,.1.1.14.09.07,0,.12-.1.19-.1.44-.01.88-.02,1.33-.02.05,0,.1.05.15.08.1.05.2.1.3.15.13.07.51-.25.62-.24.29.03.59-.08.86.11.06.04.2.04.26-.07.03-.05.05-.05.09,0,.15.15.34.12.48.02.1-.06.18-.08.27-.06.07.01.12.09.19.11.09.03.2-.03.28.06.02.02.08.04.08.03.07-.1.16-.1.26-.1.12,0,.23,0,.32.11.01.02.12,0,.15-.04.08-.08.15-.12.25-.03.04.04.1.07.15.07.24,0,.48,0,.72,0,.06,0,.12-.09.18-.09.04,0,.06.06.11.06.02,0,.04,0,.06-.03.17-.13.38-.04.58-.07.1-.01.13.11.19.11.12,0,.92-.12,1.11-.12.4,0,.8,0,1.21-.01.12,0,.24-.02.32.1.02.02.12.01.16-.01.19-.15.4-.11.61-.06.11.17.36,0,.46.2,0,.01.09.01.11,0,.07-.08.14-.12.26-.12.18,0,.36-.02.54,0,.19.02.33-.1.49-.13.15-.03.32-.03.42.14.04.07.11.11.2.09.21-.04.44.09.61-.13.2,0,.4,0,.6,0,.05,0,.13-.01.16-.05.11-.12.19-.08.3.01.1.08.23.14.36.14.22.02.43-.01.65-.02.08-.08.39-.08.73-.05.15.13.36.13.5.26.09.08,1.1-.27,1.15-.22.02.02.08,0,.12,0,.14,0,.28,0,.42,0h.78c.09.13.16.05.27,0,.12-.05.28-.01.42-.02.1,0,.19,0,.27.09.02.03.13.03.15,0,.08-.08.16-.11.27-.1.11,0,.22.01.32,0,.17-.02.35.02.52-.01.15-.03.25.1.37.12.2.02.4,0,.6,0,.12,0,.22-.02.32-.12.05-.05.15,0,.2.07.03.05.05.04.09,0,.02-.03.2.02.3-.05.08-.06.21-.04.32.03.14.09.31.09.44.01.01,0,.02-.01.03-.02,0,0,.01,0,.02,0q.31,0,.71.19c.14.06.34.11.44,0,.17-.18.84-.13.95-.07.09.05.15.12.26.1.4-.06.83.12,1.21-.14.17.02.37-.07.52.07.1,0,.19.02.28.04.07,0,.14-.02.2-.08.09-.09.24-.1.32,0,.04.05.09.06.15.07.05,0,.1,0,.16,0,.09,0,.17,0,.25.01.1-.11.21-.17.34-.12.01.01.03.03.04.05,0,0,.03.01.06.01.02.01.03.03.05.05.02.02.08.01.12,0,.21-.03,1.12-.24,1.35-.03.02.02.06-.15.17-.05.07.06.18.07.24.13.07.06.09,0,.13-.02.23-.09.42-.08.61.02.11.06.14.06.21,0,.07-.07.14-.18.22-.19.18-.03.36-.02.54-.01.1,0,.13.14.25.12.04,0,.09.08.14.1.05.01.12,0,.16-.02.06-.06.12-.09.21-.09.11,0,.22,0,.3.05.04,0,.08,0,.13,0,.14-.12.33-.04.5-.06.02,0,.05.01.08.03.07,0,.14-.01.22-.02.2-.08.42,0,.63-.03.12-.02.23,0,.32.1.04.04.19.05.22,0,.15-.16.33-.11.5-.12.22,0,.44,0,.66-.01.03,0,.08-.02.1-.04.07-.1.1-.04.18,0,.1.07.23.08.32-.02.08-.09.22-.1.27-.06.21.18.45.1.68.1.14,0,.27-.23.42-.04.02,0,.04,0,.06,0,0,0,0,0,0,0,.07-.09.16-.13.25-.03.06.07.13.06.21.07.25.02.51-.1.74.11.02.02.1-.04.15-.06.02,0,.03-.04.04-.04.04-.01.09-.03.11-.01.09.06,1.22-.05,1.51-.03.32.02.64,0,.96,0,.06,0,.14-.03.18,0,.25.22.53.1.8.1.14,0,.26-.15.43-.12.16.03.32,0,.48,0h.48c.16,0,.32-.02.48,0,.09,0,.21-.06.28.04.13.17.17-.11.28-.05.06.03.16-.02.22.06.04.06.08.03.13,0,.16-.09.33-.12.49.01.04.04.06.05.09,0,.1-.13.19-.11.29,0,.06.07.14.05.2-.02.08-.09.16-.11.25-.01.05.06.08.02.13,0,.18-.08.31-.1.44-.03.1.05.16.14.36.04.19-.1.41-.07.6.02.04.02.1,0,.14-.03.18-.14.34-.13.54,0,.09.05.22.03.33.03.03-.01.06-.02.09-.03.11-.14.27-.09.41-.08,0,0,0,0,0,0,.04,0,.08,0,.12,0,.08,0,.15-.02.23,0,.18.01.34.04.49.09.02,0,.04,0,.06-.02.09-.04.16-.09.27-.09.55,0,1.1-.01,1.64-.02.1-.02.21-.03.32-.03.16,0,.32.01.46.05.01,0,.04,0,.05,0,.01,0,.03-.01.04-.02,0,0,0,0,0,0,.04,0,.07,0,.09-.01,0,0,.01,0,.01,0,.09,0,.19.02.29.01.3-.02.6-.01.9-.01.08,0,.21.02.23-.01.02-.04.05-.07.07-.08.07,0,.13-.02.19-.05.06,0,.11,0,.16-.03.1-.05.19-.1.28-.16.05,0,.1,0,.12-.02.12-.15.31-.24.39-.41.04-.04.08-.08.11-.12,0,0,.16-.42.16-.42,0-.04,0-.09,0-.13,0-.05,0-.11,0-.17,0,0,0,0,0,0,0-.06,0-.12.02-.18,0-.01.02-.03.03-.04.01-.01.03-.05.03-.07.01-.01.02-.03.03-.04,0-.27,0-.53-.01-.8,0-.05-.06-.09-.09-.14-.05-.08-.04-.16.03-.21.2-.14.19-.34.17-.54-.08-.09-.13-.17-.13-.26.02-.05.05-.11.09-.18.02-.04.03-.06.03-.08,0,0,0,0,0,0,.02-.02.01-.1,0-.11-.07-.05-.1-.11-.11-.18,0-.03.02-.06.05-.09.02-.02.05-.08.04-.08-.06-.04-.09-.09-.1-.15,0-.06,0-.12,0-.18,0-.02,0-.04,0-.06,0-.04,0-.07,0-.11,0,0,0-.01,0-.02,0-.05.03-.11.05-.16.09-.24.1-.4,0-.62-.02-.04-.03-.08-.04-.11.01-.06.04-.11.09-.16.04-.04.04-.19,0-.23-.08-.07-.11-.15-.12-.24,0-.05,0-.09,0-.14,0-.04,0-.08,0-.13,0-.35,0-.7-.01-1.04,0-.06.02-.11.05-.17.09-.15.08-.3.02-.45-.02-.05-.07-.09-.08-.13,0-.36,0-.73,0-1.09,0-.06,0-.13-.02-.19,0-.09,0-.18,0-.27.01-.08.05-.16.13-.22,0-.16,0-.33-.01-.49-.07-.04-.1-.1-.11-.16.04-.09.13-.17.1-.3-.03-.16,0-.33-.01-.49,0-.06,0-.12.01-.18.01-.03,0-.05,0-.09,0-.03-.02-.06-.05-.08-.15-.14.14-.21.05-.35-.05-.07.03-.2-.07-.28-.01,0,0-.09.04-.12.02-.02.02-.04,0-.06.03-.05,0-.19.01-.2,0-.17.06-.34,0-.49.01-.2,0-.47,0-.57,0-.04.01-.09.03-.13,0-.05,0-.11,0-.16-.01-.01-.02-.03-.02-.04,0,0,0-.02,0-.03,0-.13,0-.24.12-.32.02-.01.02-.1,0-.11-.16-.1-.05-.17,0-.27.03-.07.02-.18-.02-.23-.14-.2-.14-.38,0-.59.04-.06.02-.2-.02-.28-.03-.07-.1-.12-.09-.21.02-.17-.07-.37.12-.5,0-.12.02-.25-.01-.36-.03-.08-.13-.11-.03-.23.06-.07.04-.23.03-.35,0-.05-.09-.09-.09-.14,0-.03,0-.06,0-.09.03-.05.07-.1.07-.17,0-.16,0-.32,0-.49.08-.15,0-.33.02-.49-.01-.01-.02-.02-.03-.04.01-.17.02-.34-.09-.49,0-.08.01-.15,0-.22-.02-.1,0-.2,0-.31,0-.03,0-.07,0-.1.02-.04.04-.07.07-.11,0-.06,0-.13,0-.19.01-.02.03-.03.05-.05.02-.01-.01-.12-.05-.16,0,0,0-.01,0-.02,0-.08,0-.16,0-.23h0c.07-.06.06-.14.06-.22,0-.47-.01-.94-.01-1.42,0-.1-.04-.19-.1-.26-.07-.08-.03-.14.11-.2.03-.02.09-.03.09-.05.01-.14.04-.28-.02-.41-.03-.05-.08-.1-.08-.15-.01-.24,0-.49,0-.74,0-.04.01-.08.04-.1.15-.13.08-.31.06-.46-.01-.08-.12-.14-.11-.26,0-.06,0-.13,0-.19,0,0,0,0,0,0,.02-.02.04-.08.04-.08,0,0-.05-.83-.06-.97,0-.26,0-.26.19-.53.03-.05.04-.05,0-.09-.06-.07-.07-.19-.14-.24-.13-.11.08-.17.03-.22-.14-.13-.11-.22,0-.35.04-.04.03-.14.09-.21.1-.11-.1-.12-.09-.24.02-.18.06-.39-.1-.54-.01-.15-.02-.28-.03-.42.03-.04.03-.06.03-.09.16-.12.09-.29.09-.44,0-.2,0-.41,0-.61v-1.29c-.01-.2-.04-.41-.01-.61.03-.21-.12-.38-.12-.56,0-.25-.13-.53.09-.76,0,0,0-.36,0-.5,0-.08,0-.16,0-.24v-.1c0-.1.03-.2.12-.29.02-.02-.03-.1-.06-.15-.02-.05-.06-.11-.06-.16,0-.05,0-.26,0-.33v-1.4s.04-.07.06-.1c.05-.1.01-.68-.06-.84v-.8c.02-.06.04-.11.08-.17.04-.07.04-.21-.07-.27,0,0,0,0,0,0v-.09c.11-.12.17-.47.17-.53v-.78s0-.01,0-.01c.14-.09.06-.16,0-.27-.04-.09-.03-.19-.02-.3,0,0,.02-.02.03-.02.01-.01,0-.09-.02-.13,0-.09.01-.17.09-.24.03-.03.03-.13,0-.16-.03-.03-.06-.07-.07-.1,0-.17,0-.35,0-.52-.06-.04.05-.44,0-.47l-.05-8.61c.06.04,0-.79.06-.75,0-.05,0-.1,0-.15,0-.02,0-.04-.02-.05,0-.1,0-.2-.01-.3-.03-.16.1-.25.12-.38.02-.2,0-.41,0-.61,0-.13-.02-.23-.12-.32-.05-.05,0-.15.07-.2.05-.03.04-.05,0-.09-.03-.02.02-.21-.05-.31-.06-.08-.04-.21.03-.33.09-.14.09-.31.01-.45-.04-.07-.08-.12-.08-.21,0-.19,0-.38,0-.57,0,0,0,0,0,0,.02,0,.02-.1,0-.15,0-.23,0-.46-.01-.69.03-.06.03-.13.04-.2.03-.06.07-.13.09-.2,0,0,.01-.01.02-.02.01,0,.01-.1-.01-.11,0,0-.01-.01-.02-.02-.02-.1-.02-.22,0-.32.03-.13-.06-.2-.1-.29,0-.06,0-.13,0-.19.01-.09,0-.17-.04-.24,0-.22,0-.43,0-.65.02-.01.03-.03.05-.04.07-.04.11-.12.09-.21-.03-.2-.02-.69-.03-.76-.02-.24,0-.49-.01-.74,0-.14-.03-.29.12-.38.04-.03.04-.09,0-.11-.05-.03-.08-.07-.1-.12,0-.21-.01-.41-.02-.62,0,0,0,0,0,0,0-.39,0-.77,0-1.16.02-.2.05-.39.06-.52.01-.02.1-.23.03-.29-.14-.11-.09-.25-.1-.39,0-.01,0-.03,0-.04,0,0,.01-.02.02-.02.02-.02,0-.08,0-.12,0,0,0-.02,0-.03.01,0,.03-.05.04-.08,0-.01.02-.03.03-.04.02-.02.02-.04.02-.06,0,0,0-.01.01-.02.11-.12.1-.26-.02-.37-.04-.04-.04-.05-.01-.09.14-.18.13-.35,0-.54,0,0,0,0,0-.02,0,0,0,0,0-.02.02-.08.03-.21,0-.24-.01,0-.02-.02-.03-.03,0-.05,0-.11,0-.17.01-.02.03-.05.03-.08.03-.22.01-.45,0-.67-.01-.19.04-.4-.05-.58,0-.3,0-.6,0-.9,0-.08-.01-.16.07-.22.05-.03.06-.06.02-.09-.13-.08-.1-.22-.09-.33.01-.17-.17-.26-.13-.44.02-.11-.1-.18-.17-.23,0,0-.01-.01-.02-.02-.38-.74-.88-1.02-1.06-1.07-.18-.06-.37-.09-.52-.19-.1-.07-.23-.06-.3-.16-.09-.13-.24-.18-.37-.26-.02-.04-.03-.08-.02-.14-.06-.09-.14-.09-.23-.09-.13-.09-.3-.14-.39-.28-.07-.12-.2-.11-.29-.17-.13-.08-.29-.11-.38-.26-.06-.1-.3-.03-.25-.25-.06-.03-.13-.04-.18-.07-.05-.04-.1-.08-.16-.09,0,0-.02,0-.03-.01,0,0,0,0,0,0-.05-.01-.11-.02-.17,0-.11-.13-.3-.11-.41-.25-.09-.12-.2-.22-.32-.32-.04-.04-.11-.07-.16-.07-.15,0-.25-.01-.23-.2-.08-.05-.23-.08-.24-.14-.02-.13-.06-.19-.19-.18-.06,0-.15,0-.17-.04-.12-.19-.35-.2-.5-.35-.09-.1-.16-.29-.34-.24-.18.05-.23-.18-.4-.14-.05.01-.13,0-.17-.04-.09-.06-.16-.14-.23-.21-.21.06-.14-.15-.22-.23-.07-.07-.13-.14-.25-.17-.13-.02-.28-.1-.35-.2-.11-.16-.31-.13-.41-.27-.12-.16-.3-.24-.46-.27-.19-.04-.22-.27-.4-.27-.15,0-.18-.18-.29-.22-.15-.04-.21-.13-.27-.27-.02-.05-.19-.06-.2-.09-.01-.13-.03-.21-.18-.19-.15-.14-.38-.15-.5-.34-.1-.18-.27-.18-.44-.17-.08,0-.16,0-.18-.12-.02-.19-.22-.25-.31-.38,0,0-.03.01-.04.03-.06.09-.11.09-.18,0-.11-.13-.24-.24-.36-.37-.07-.07-.09-.01-.14.02-.13.08-.15.08-.22.02-.12-.11-.23-.29-.37-.33-.17-.05-.22-.22-.34-.25-.16-.03-.25-.14-.35-.24-.08-.07-.2-.02-.27-.13-.05-.08-.12-.15-.24-.18-.18-.04-.62-.56-.73-.68-.09-.1-.14.02-.18.01-.12-.03-.29-.08-.33-.17-.05-.1-.06-.17-.19-.18-.07,0-.14-.1-.18-.16-.11-.15-.17.05-.22.03-.09-.05-.14-.18-.23-.21-.13-.04-.24-.09-.3-.19-.07-.11-.19-.06-.27-.13-.07-.07-.14-.18-.23-.21-.17-.06-.3-.12-.3-.33-.1-.07-.15-.24-.3-.18-.18.06-.44-.29-.49-.35-.08-.09-.16-.2-.31-.17-.08.02-.2.03-.24-.02-.12-.12-.31-.11-.41-.26-.05-.08-.12-.11-.21-.1-.06,0-.13,0-.17-.04-.18-.15-.32-.36-.52-.46-.25-.11-.37-.34-.56-.49-.12-.09-.22-.2-.32-.32-.08-.09-.17-.11-.28-.1-.13.01-.25,0-.33-.12-.05-.07-.13-.12-.18-.18-.13-.16-.28-.24-.49-.2-.12.02-.18-.07-.24-.14-.05-.06-.05-.16-.1-.21-.05-.05-.14-.06-.21-.1-.12-.06-.24-.13-.37-.19-.12-.06-.26-.1-.37-.18-.12-.09-.21-.21-.32-.31-.01-.01-.04-.02-.05-.02-.22.03-1.85-1.35-2.01-1.28-.12-.08-.17-.24-.34-.26-.07,0-.15-.08-.19-.15-.07-.1-.19-.07-.27-.13-.07-.05-.12-.12-.18-.18-.07-.07-.19-.03-.27-.13-.14-.19-.32-.33-.57-.32-.15-.13-.74-.58-.9-.61-.19-.03-.27-.19-.39-.3-.12-.11-.31-.09-.41-.27-.08-.15-.25-.2-.39-.28-.22-.13-.5-.17-.67-.4-.02-.03-.08-.04-.11-.04-.14.03-.24-.04-.33-.14-.12-.13-.24-.24-.36-.36-.2.02-.26-.22-.4-.25-.22-.04-.29-.23-.44-.33-.03-.02-.07-.06-.1-.06-.26.04-.36-.17-.51-.31,0-.22-.13-.22-.29-.21-.05,0-.11-.05-.15-.1-.09-.09-.17-.18-.32-.16-.05,0-.11-.04-.16-.07-.09-.05-.12-.19-.24-.18-.2.01-.1-.19-.2-.27-.15-.11-.24-.31-.47-.25-.12-.14-.3-.1-.44-.16-.13-.05-.17-.23-.35-.23-.06,0-.13-.1-.18-.17-.11-.13-.24-.22-.4-.27-.16-.05-.29-.15-.4-.27-.08-.08-.24-.05-.3-.18-.06-.13-.21-.12-.31-.18-.14-.08-.28-.15-.4-.27-.1-.1-.26-.1-.35-.23-.1-.14-.48-.48-.62-.47-.18.02-.24-.15-.34-.25-.3-.29-.34-.32-.6-.39-.05-.02-.11-.06-.15-.1-.15-.14-.26-.35-.52-.29-.02,0-.05-.09-.08-.14-.13-.19-.24-.41-.53-.37-.03,0-.1-.04-.1-.05.02-.25-.16-.22-.29-.2-.19.04-.28-.15-.45-.17-.08,0-.14-.19-.23-.2-.11-.02-.19-.06-.26-.15-.07-.09-.16-.12-.26-.14-.07-.02-.12-.12-.18-.17-.08-.06-.17-.1-.26-.14-.09-.03-.17-.08-.25-.13-.09.09-.4-.16-.4-.31-.28-.15-.67-.46-.79-.57-.25,0-.32-.25-.49-.37-.02-.01-.04-.02-.06-.02-.14.03-.2-.12-.33-.14-.12-.02-.23-.18-.32-.29-.09-.1-.22-.09-.32-.17-.09-.07-.23-.09-.3-.19-.09-.13-.27-.08-.36-.22-.1-.14-.25-.24-.35-.37-.11-.13-.23-.17-.39-.15-.08.01-.16,0-.23-.07-.05-.05-.15-.05-.21-.1-.08-.06-.15-.2-.23-.2-.2,0-.24-.24-.41-.26-.19-.03-.28-.19-.38-.31-.08-.09-.23-.03-.26-.13-.04-.1-.06-.19-.14-.27-.12-.12-.23-.25-.43-.2-.08.02-.15-.02-.23-.06-.21-.12-.43-.21-.51-.49-.03-.11-.13-.23-.28-.21-.2.02-.36-.03-.49-.2-.08-.09-.22-.07-.31-.18-.09-.1-.16-.24-.33-.27-.11-.02-.22-.09-.32-.15-.03-.01-.03-.07-.04-.11-.04-.16-.19-.22-.27-.34-.05-.07-.11-.04-.17-.04-.08,0-.17-.02-.25,0-.15.05-.2-.14-.33-.13-.12,0-.09-.1-.13-.17-.05-.09-.14-.2-.22-.2-.22,0-.24-.31-.47-.27-.04,0-.1-.07-.14-.12-.07-.12-.23-.09-.31-.18-.27-.29-.27-.3-.49-.33-.02,0-.04,0-.06,0-.06-.02-.08-.07-.1-.13-.05-.18-.17-.28-.37-.25-.06,0-.13.01-.19,0-.04,0-.07-.05-.07-.09,0-.15-.08-.18-.2-.16-.13.02-.2-.02-.19-.17,0-.02-.02-.04-.03-.05-.01-.01-.04-.04-.05-.03-.23.07-.34-.11-.48-.24-.26-.03-.34-.33-.54-.39-.26-.07-.34-.3-.53-.43-.03-.02-.04-.07-.04-.11,0-.12.03-.28-.18-.25-.07-.06-.13-.13-.2-.19,0-.05,0-.09-.02-.13-.06-.09-.14-.16-.2-.25-.05-.07-.12-.16-.11-.23.04-.24-.08-.39-.24-.52-.05-.04-.09-.09-.1-.15,0-.01,0-.03,0-.04,0-.02,0-.04,0-.06.04-.17-.07-.27-.17-.37-.09-.08-.06-.16.02-.23.04-.03.05-.05,0-.08-.03-.02-.07-.05-.07-.08,0-.13-.03-.27,0-.39.03-.15-.13-.22-.11-.35.02-.25-.09-.52.11-.74,0-.24,0-.49,0-.73,0-.12.11-.61.08-.73-.01-.06-.11-.09-.01-.16.11-.08.18-.17.16-.33-.02-.09.04-.17.07-.25.06-.14.2-.78.44-.76.01,0,.05-.06.04-.09-.04-.15.1-.23.11-.35,0-.07.04-.13.09-.11.25.09.24-.16.33-.26.05-.06,0-.19.05-.25.08-.12.19-.24.31-.31.05-.03.17-.12.32-.24.02,0,.04,0,.06.01.06-.06.12-.12.18-.18.24-.18.48-.34.58-.34.07,0,.13-.11.21-.16.06-.04.13-.04.19-.08.06-.05-.02-.2.13-.19.09,0,.12-.11.18-.11.17.02.28-.04.38-.17.01-.02.04-.03.06-.04.06,0,.12,0,.19,0,.04,0,.1.02.12,0,.03-.03.05-.05.08-.07.11-.01.21-.02.22,0,.06.06.12.07.19.02.14-.1.3-.15.45-.24.04,0,.08.01.12,0,.04,0,.07,0,.11-.01.09.08.21.04.32.06.06,0,.3,0,.44,0,.1.1.2.11.31-.03.1,0,.2-.02.29-.02,0,0,0,0,0,0,.04.06.11.15.17.15.16,0,.33.06.47-.05.11-.09.22-.03.37-.07.06,0,.11,0,.17.01.04.02.08.05.11.08,0,0,.32.05.45-.08.24,0,.47,0,.71,0,.1,0,.16.04.24.1.05.04.14.03.21.01.06-.02.12-.1.18-.1.13,0,.26,0,.39,0,.05.03.06.16.15.06.09-.1.14.03.17.02.12-.03.23-.09.34-.16.04-.03.05-.05.09-.01.18.19.42.06.63.09.12.01.22.03.31.13.04.04.14-.02.17-.1.02-.07,0-.18.12-.08.07.07.14.05.22.07.09.02.17.09.25.12.03.01.09,0,.1-.03.07-.1.17-.09.27-.09.1,0,.18,0,.27-.07.13-.09.29-.09.44,0,.09.06.12.03.18-.02.04-.03.13-.04.16-.01.15.16.32.1.49.08.08-.13.21-.1.32-.1.22,0,.44-.01.66.01.23.03.73.06.76.05.05-.02.14-.05.16-.04.14.19.32.11.49.11.04,0,.44-.06.54.09.01.02.07.03.08.02.13-.15.3-.06.45-.08.13-.19.32-.11.49-.12.14,0,.28,0,.42,0,.16,0,.33.03.48,0,.16-.03.24.13.37.13.1,0,.22.03.29-.02.09-.06.13-.09.23,0,.06.05.19.03.29.03.05,0,.11-.03.15-.07.1-.09.18-.06.25.03.04.05.06.06.09,0,.05-.08.12-.09.21-.08.12,0,.24,0,.36,0h.78c.14,0,.28.01.42.01.11,0,.24.05.33-.09.12.02.22.11.36.1.28-.02.56,0,.84,0,.23,0,.47-.06.68.12.03.03.14.03.17,0,.17-.17.37-.11.56-.11.14,0,.31-.04.41.1.01,0,.02,0,.03,0,.05-.04.09-.12.18-.11.23.04.48-.08.67.13.2,0,.4,0,.6,0,.04,0,.1,0,.11-.01.09-.18.3-.05.42-.16.13-.11.31-.1.44-.02.14.08.25.12.47.05.22-.07.46-.04.68.03.17.06.39-.06.51.14.03.04.09.04.11,0,.1-.14.24-.12.38-.12.28,0,.56,0,.84,0,.05,0,.11-.03.16-.05.26-.09.63-.13.84,0,.13.08.13-.08.22-.04.36.15.39.14.82-.02.02,0,.04,0,.06,0,.1-.02.11.11.19.11.05,0,.08-.16.17-.05.06.08.14.06.22.07.1.01.13-.07.2-.11.06-.03.07.14.17.07.03-.02.05-.07.09-.08.03-.01.08,0,.12,0h.42c.14,0,.28,0,.42,0,.11,0,.25-.05.32.09.13,0,.22-.12.36-.09.14.03.28,0,.42,0,.12,0,.24-.03.32.11,0,0,.03,0,.04,0,.12-.17.3-.09.44-.09.15,0,.33-.06.46.07.03,0,.05,0,.08,0,.01-.01.03-.02.04-.03.05-.02.11-.05.16-.03.03.01.06.05.09.08.08,0,.15.02.23.04.13-.02.25-.09.38-.11.2-.03.41.24.6.11.23-.15.45-.1.68-.1.28,0,.56,0,.84,0l2.47.02c.26,0,.52-.02.78.01.24.03.51-.1.73.07.04,0,.08,0,.12.02.04-.04.07-.08.14-.08.23-.02.48.1.67-.11.21.02.44-.06.61.13h.45c.12.01.24.02.36,0,.11,0,.23.05.33-.07.09-.11.23-.04.34-.04.72,0,1.45.01,2.17.02.15,0,.32-.04.44.12.02.03.12.02.17,0,.09-.03.17-.11.25-.11.08,0,.17.11.25.11.17,0,.35.07.51-.09.04-.04.15-.02.23-.02,1.35.01,2.69.03,4.04.04.1,0,.19,0,.27.07.08,0,.15,0,.23,0,0,0,0,0,0,0,.09-.12.2-.2.36-.18.19.03.39-.04.56.13.03.03.12.02.18,0,.07-.02.17-.1.18-.09.09.12.14.05.22-.01.07-.05.2-.01.28-.05.12-.06.17-.23.34-.21.1-.1.2-.2.3-.3.11-.11.24-.43.24-.57q0-.32.2-.72c.06-.14.11-.34.01-.45-.17-.18-.11-.85-.05-.97.05-.09.12-.15.1-.27-.01-.11-.01-.22,0-.34l-.03-.84c.02-.31.06-.62-.12-.9.02-.18-.06-.38.07-.53,0-.1.02-.2.04-.29,0-.07-.01-.14-.08-.2-.09-.09-.1-.25,0-.32.05-.04.06-.1.07-.15,0-.05,0-.1,0-.16,0-.09,0-.17.01-.26-.15-.15-.22-.3-.01-.5.02-.02.01-.08,0-.12-.03-.21-.23-1.14-.02-1.37.02-.02-.15-.06-.05-.17.06-.07.07-.18.13-.25.06-.07,0-.09-.02-.13-.08-.24-.07-.43.02-.62.05-.11.05-.14,0-.21-.04-.04-.09-.08-.13-.13v-.5s0-.28,0-.28c.03-.04.06-.07.05-.13,0-.04.08-.09.1-.14.01-.05,0-.13-.02-.16-.06-.06-.09-.12-.09-.21,0-.11,0-.22.05-.31,0-.04,0-.09,0-.13-.12-.15-.04-.34-.06-.51,0-.02.01-.05.03-.08,0-.07-.01-.15-.02-.22-.08-.2,0-.43-.03-.64-.02-.12,0-.23.1-.33.04-.04.05-.19,0-.23-.15-.15-.11-.33-.12-.51,0-.14,0-.27,0-.41,0-.09,0-.18,0-.27,0,0,0-.02,0-.03v-.33c.02-.05.02-.11,0-.16,0,0,0,0,0,0v-.04s.02-2.56.02-2.56c.02-.05.05-.11.09-.16.02-.02-.04-.1-.06-.15,0-.01-.02-.02-.03-.03l.04-4.36.04-4.26c.14-.23.05-.49.05-.74,0-.05-.02-.1-.04-.16l.02-2.08s.02-.06,0-.08v-.42s0-.03,0-.04v-.41s.03-.03.04-.05ZM113.55,127.4s.03.02.04.03c0,0,.03,0,.08,0,0,0,.02,0,.02,0,.25.09.34.1.56.02.02,0,.03-.01.04-.02.02,0,.04,0,.06,0,0,0,.01.01.02.02.05.07.14.09.18.03,0,0,.01-.01.02-.02.04.02.09.04.13.09.02.02.1-.04.15-.06.05-.02.11-.07.15-.06.05,0,.1.1.14.09.07,0,.12-.1.19-.1.07,0,.14,0,.21,0,.04.02.08.04.12.08.01.02.1-.02.14-.05.05-.04.08-.06.12,0,.05.07.13.09.18.03.03-.04.07-.06.1-.07.15,0,.3,0,.44,0,.05,0,.1.05.15.08.1.05.2.1.3.15.12.06.46-.21.59-.24.04,0,.07,0,.11,0,.05,0,.09,0,.14,0,.11,0,.21,0,.32,0,.06,0,.11.09.18.1.05.01.12.02.17,0,.07.03.18.01.24-.08,0-.02.02-.03.03-.03,0,0,0,0,.02,0,0,0,.01,0,.02,0,0,0,.02.01.03.02.15.15.34.12.48.02.03-.02.06-.03.09-.04.08,0,.16,0,.24,0,.05.03.09.07.14.09.09.03.2-.03.28.06.02.02.08.04.08.03.07-.1.16-.1.26-.1.12,0,.23,0,.32.11.01.02.12,0,.15-.04.02-.02.04-.03.05-.04.05,0,.09,0,.14,0,0,0,.02,0,.03,0,.01,0,.03.02.04.03.04.04.1.07.15.07.24,0,.48,0,.72,0,.06,0,.12-.09.18-.09.04,0,.06.06.11.06-.01-.05-.02-.1-.03-.15,0,0,.01,0,.01,0,.12-.02.26.03.35-.1.01-.02.11-.01.14.01.15.11.35.16.5.27.07.05.13.05.19-.01.02-.02.38.02.54.05.05,0,.11.03.14.06.1.12.21.19.38.17.06,0,.08.12.17.11.15-.01.07.14.13.19.05.04.13.05.19.08.07.05.14.16.21.16.19,0,.99.67,1.13.75.12.07.23.19.31.31.05.06,0,.2.05.25.09.1.08.35.33.26.05-.02.08.04.09.11.01.12.15.2.11.35,0,.02.03.09.04.09.24-.02.38.62.44.76.03.08.09.16.07.25-.03.15.05.25.16.33.09.07,0,.11-.01.16-.03.12.08.6.08.73,0,.24,0,.49,0,.73.2.22.08.49.11.74.01.12-.15.19-.11.35.03.12,0,.26,0,.39,0,.03-.04.06-.07.08-.04.03-.04.05,0,.08.08.07.11.15.02.23-.11.1-.22.2-.17.38.03.1-.03.17-.1.24-.16.13-.28.28-.24.52.01.07-.06.16-.11.23-.06.09-.15.16-.2.25-.06.09.02.21-.08.31-.08.08-.09.22-.2.31-.11.09-.24.2-.29.32-.07.19-.24.27-.34.42-.07.09-.17.03-.25.06-.14.04-.17.26-.35.22-.01,0-.04.02-.04.04-.02.11-.76.52-1.03.7-.03.02-.06.03-.09.04-.16.05-.42-.15-.47.19,0,.02-.1.02-.15.03-.17.04-.37-.09-.52.08-.2.01-.4.03-.59.04-.07.15-.19-.02-.23.02-.09.11-.2.07-.3.08-.11,0-.22,0-.33,0-.16-.01-.91-.1-1.08-.11-.33-.01-.67,0-1,0-.12,0-.26.05-.35-.09-.16,0-.32,0-.48,0-.07.12-.19.09-.3.09-.55,0-1.1,0-1.65,0-.02,0-.04,0-.07,0-.11,0-.22,0-.29-.1-.01-.02-.11,0-.14.03-.06.06-.11.08-.19.08-.78,0-1.55,0-2.33,0-.04,0-.1.01-.11,0-.09-.15-.16-.05-.25,0-.09.05-.19.09-.29.11-.07.02-.09-.14-.16-.08-.08.08-.16.08-.25.08-.13,0-.26,0-.39,0-.08-.13-.21-.12-.34-.11-.09-.16-.16-.07-.24.02-.03.03-.1.08-.11.07-.21-.2-.39-.07-.59.02-.02.01-.06-.02-.09-.03-.05-.02-.09-.07-.14-.07-.18,0-.36-.05-.51.1-.02.02-.09-.02-.14-.05-.17-.08-.17-.1-.34,0-.09.06-.2.08-.25.04-.13-.08-.24-.18-.36,0-.01.02-.12,0-.14-.04-.09-.11-.52.04-.65.04-.13,0-.26,0-.39,0-.04,0-.52.02-.68,0-.02,0-.04,0-.06,0-.09,0-.18.02-.25-.06-.1-.11-.11.1-.21.07-.08-.03-.18,0-.28,0-.04,0-.07,0-.11,0-.01,0-.03.02-.04.04-.06.09-.1.04-.16-.01-.06-.05-.12-.04-.18.01-.06-.03-.59-.04-.68-.04-.09,0-.36.02-.46,0-.12-.02-.28-.04-.38.02-.02.01-.03.02-.05.03-.12,0-.21,0-.23-.01-.19-.02-.81-.14-.88-.08-.1.09-.2.08-.3.08-.05,0-.1,0-.16,0-.01-.01-.03-.02-.04-.03-.19.03-.39-.06-.57.03-.47,0-.93,0-1.4,0-.01-.01-.03-.02-.04-.03-.11,0-.24-.03-.32.02-.18-.03-.49-.12-.55-.02,0,0,0,0,0,0-.02,0-.04,0-.06,0,0,0,0,0-.01-.02-.05-.07-.12-.07-.19-.07-.32.02-.66-.06-.97.07-.02,0-.04,0-.05,0-.05.02-.13,0-.16.02,0,0,0,0,0,0,0,0,0,0,0,0-.23,0-.47,0-.7,0-.26-.01-.54.2-.78,0-.15,0-.24.02-.4.02,0,.1-.25-.03-.26.08-.13.1-.12.15-.26.16-.09,0-.14-.05-.21-.09-.08-.04-.21-.06-.27-.02-.21.14-.38.14-.58,0-.05-.04-.16-.05-.23-.02-.1.04-.18.16-.27,0-.01-.02-.1-.02-.11,0-.08.11-.19.12-.32.12-.15,0-.32-.04-.43.11-.06,0-.08,0-.14,0-.04-.04-.08-.08-.14-.06-.18.04-.27-.15-.43-.14-.11,0-.24.05-.32-.09-.02-.04-.05-.03-.09.02-.05.08-.13.07-.21.07-.46,0-.92,0-1.39-.02-.13,0-1.2,0-1.27-.05-.19-.13-.36-.14-.53,0-.04.03-.05.03-.09-.01-.11-.12-.25-.13-.36-.02-.09.08-.22.1-.27.05-.21-.18-.45-.11-.68-.12-.22-.01-.44-.03-.66,0-.09.01-.17.15-.27,0-.03-.04-.16-.03-.23,0-.07.02-.09.12-.19.12-.22-.01-.44,0-.66-.03-.08-.01-.16-.17-.24-.09-.1.1-.21.1-.32.1-.05,0-.09,0-.14,0-.09,0-.17-.01-.25-.11-.05-.07-.16-.08-.22-.02-.17.16-.37.11-.56.11-.5,0-1-.01-1.51-.01-.14,0-.28.02-.38-.13-.03-.04-.09-.04-.11,0-.1.16-.26.11-.41.12-.23,0-.47-.01-.7-.01-.11,0-.16.11-.23.1-.06,0-.1-.12-.2-.1-.11.02-.23-.04-.33.06-.27,0-.53,0-.8,0-.09,0-.15-.03-.21-.09,0,0-.06,0-.08.02-.09.09-.16.09-.25,0-.04-.04-.12-.08-.15-.06-.04.02-.13.05-.23.07-.07,0-.13,0-.2-.02-.16-.04-.26.1-.4.12-.02-.02-.05-.05-.07-.05-.14-.02-.28,0-.42,0-.13,0-.27.03-.39-.1-.05-.05-.19-.02-.29-.02-.04,0-.1,0-.11.03-.07.15-1.52-.04-1.6-.09-.15-.11-.97.03-1.02-.03-.1-.11-.43.05-.54.07-.11,0-.23-.06-.31.04-.12.15-.44-.01-.46.01-.08.1-.63-.02-.7-.13-.02-.03-.12-.04-.14-.02-.07.06-.14.11-.24.1-.11-.01-.68-.04-.85,0-.1-.14-.26-.09-.4-.12-.16-.03-.25.13-.4.12-.15-.01-.29,0-.44,0-.01,0-.03.02-.04.04-.01.01-.03.02-.04.03-.03,0-.08,0-.14.02-.03,0-.06-.01-.07,0,0,0,0,0,0,0-.02,0-.04,0-.06,0-.03,0-.06,0-.09,0-.08-.14-.22-.1-.35-.1-.11,0-.2-.02-.3-.08-.11-.07-.28-.07-.4.03-.04.03-.06.05-.08.02-.05-.06-.08-.05-.14-.02,0,0-.01,0-.02,0-.2.08-.42.07-.63,0-.25-.09-.34-.1-.56-.02-.05.02-.07.06-.12,0-.05-.07-.14-.09-.18-.03-.14.19-.61.09-.65.09-.16-.02-.33.03-.46-.11-.01-.02-.1.02-.14.05-.05.04-.08.06-.12,0-.05-.07-.13-.09-.18-.03-.07.08-.15.09-.24.09-.18,0-.37.01-.55,0-.17-.01-.59,0-.63,0-.24,0-.48.01-.72,0-.06,0-.11-.09-.18-.1-.07-.02-.16-.02-.21.01-.08.06-.14.1-.24.1-.54,0-1.07,0-1.61,0-.07,0-.13,0-.2-.06-.14-.11-.32-.05-.47-.05-.05,0-.12.08-.16.14-.08.12-.21.1-.3.07-.08-.02-.13-.12-.23-.11-.1,0-.44-.01-.52,0-.12.02-.26-.03-.35.1-.01.02-.11.01-.14-.01-.15-.11-.35-.16-.5-.27-.07-.05-.13-.05-.19.01-.02.02-.38-.02-.54-.05-.05,0-.11-.03-.14-.06-.1-.12-.21-.19-.38-.17-.06,0-.08-.12-.17-.11-.15.01-.07-.14-.13-.19-.05-.04-.13-.05-.19-.08-.07-.05-.14-.16-.21-.16-.19,0-.99-.67-1.13-.75-.12-.07-.23-.19-.31-.31-.05-.06,0-.2-.05-.25-.09-.1-.08-.35-.33-.26-.05.02-.08-.04-.09-.11-.01-.12-.15-.2-.11-.35,0-.02-.03-.09-.04-.09-.24.02-.38-.62-.44-.76-.03-.08-.09-.16-.07-.25.03-.15-.05-.25-.16-.33-.09-.07,0-.11.01-.16.03-.12-.08-.6-.08-.73,0-.24,0-.49,0-.73-.2-.22-.08-.49-.11-.74-.01-.12.15-.19.11-.35-.03-.12,0-.26,0-.39,0-.03.04-.06.07-.08.04-.03.04-.05,0-.08-.08-.07-.11-.15-.02-.23.11-.1.22-.2.17-.38-.03-.1.03-.17.1-.24.16-.13.28-.28.24-.52-.01-.07.06-.16.11-.23.06-.09.15-.16.2-.25.06-.09-.02-.21.08-.31.08-.08.09-.22.2-.31.11-.09.24-.2.29-.32.07-.19.24-.27.34-.42.07-.09.17-.03.25-.06.14-.04.17-.26.35-.22.01,0,.04-.02.04-.04.02-.11.76-.52,1.03-.7.03-.02.06-.03.09-.04.16-.05.42.15.47-.19,0-.02.1-.02.15-.03.17-.04.37.09.52-.08.2-.01.4-.03.59-.04.07-.15.19.02.23-.02.09-.11.2-.07.3-.08.11,0,.22,0,.33,0,.16.01.91.1,1.08.11.05,0,.1,0,.15,0,0,.03-.02.07-.02.1.03,0,.06,0,.08,0,.38,0,.76,0,1.14-.01,0,0,0,0,.01.01.09,0,.18,0,.27,0,.04.01.08.04.12.09.02.02.12.01.16-.01.19-.15.4-.11.61-.06.11.17.36,0,.46.2,0,.01.09.01.11,0,.07-.08.14-.12.26-.12.18,0,.36-.02.54,0,.12.01.22-.03.32-.07.03,0,.07-.02.09-.03,0,0,0,0,0,0,.03,0,.05-.02.08-.02.15-.03.32-.03.42.14.04.07.11.11.2.09.21-.04.44.09.61-.13.2,0,.4,0,.6,0,.05,0,.13-.01.16-.05.11-.12.19-.08.3.01.1.08.23.14.36.14.22.02.43-.01.65-.02.2-.19,1.83.08,1.84.06.16-.19.33-.3.54-.07.02.02.08,0,.12,0,.14,0,.28,0,.42,0h.78c.09.13.16.05.27,0,.12-.05.28-.01.42-.02.1,0,.19,0,.27.09.02.03.13.03.15,0,.08-.08.16-.11.27-.1.11,0,.22.01.32,0,.17-.02.35.02.52-.01.15-.03.25.1.37.12.2.02.4,0,.6,0,.12,0,.22-.02.32-.12.05-.05.15,0,.2.07.03.05.05.04.09,0,.02-.03.2.02.3-.05.08-.06.21-.04.32.03.14.09.31.09.44.01.03-.02.05-.03.08-.05.12.03.26-.04.34.11.01.02.07.03.11.03.1,0,.24.03.29-.02.12-.13.25-.1.39-.1.14,0,.28,0,.42,0,.03,0,.05-.03.07-.05.14.02.24.16.4.12.06-.01.13-.02.2-.02.1.02.19.04.23.07.03.02.11-.02.15-.06.09-.09.17-.08.25,0,.02.02.07.03.08.02.06-.07.12-.09.21-.09.27,0,.53,0,.8,0,.1.1.22.04.33.06.09.02.14-.09.2-.1.08-.01.13.1.23.1.23,0,.47-.02.7-.01.15,0,.3-.04.41.12.03.04.09.04.11,0,.09-.15.24-.12.38-.13.5,0,1-.01,1.51-.01.19,0,.39-.05.56.11.06.06.17.06.22-.02.07-.09.16-.11.25-.11.05,0,.09,0,.14,0,.12,0,.22,0,.32.1.09.08.17-.08.24-.09.22-.03.44-.01.66-.03.1,0,.13.1.19.12.07.02.2.03.23,0,.11-.16.18-.02.27,0,.22.03.44.01.66,0,.23-.01.47.06.68-.12.05-.04.18-.03.27.05.12.11.25.1.36-.02.04-.04.05-.04.09-.01.18.14.35.13.53,0,.07-.05,1.13-.05,1.27-.05.46,0,.92-.01,1.39-.02.08,0,.16-.01.21.07.03.05.06.06.09.02.08-.14.21-.1.32-.09.17.01.26-.17.43-.14.06.01.11-.02.14-.06.06,0,.08,0,.14,0,.11.15.28.12.43.11.13,0,.23,0,.32.12.01.02.1.02.11,0,.09-.17.17-.05.27,0,.06.03.17.02.23-.02.2-.15.38-.15.58,0,.06.04.2.02.27-.02.07-.03.12-.1.21-.09.17.02.36-.07.49.12.12,0,.25.02.36-.02.08-.03.11-.13.22-.03.07.06.23.04.34.03.05,0,.09-.09.14-.1.21-.01.43,0,.64,0,.16.19.38.06.56.09.21-.24.49-.09.73-.13.1-.02.2,0,.3,0,.15,0,.32-.05.44.11.01.02.12-.01.15-.05.08-.08.16-.12.25-.02.06.07.14.07.22.06.46,0,.92-.01,1.39-.01.11,0,.18-.03.26-.11.08-.07.13-.03.2.11.02.03.03.09.05.1.13.01.27.04.4-.02.05-.03.09-.08.14-.09.24-.01.48-.01.72-.01.03,0,.08.01.1.04.13.15.3.08.45.06.07-.01.14-.12.25-.11.11.01.24-.04.32.1.17,0,.35,0,.52,0,.09-.16.25-.1.38-.11.19,0,.24,0,.36.07,0,0,.66.06.71.01.13-.15.22-.11.34,0,.04.04,1.21-.11,1.31-.1.05,0,.44.09.59.09.13,0,.26,0,.39,0,.08.02.18,0,.27.03.07.01.12,0,.17-.03h1.04c.2-.01.4-.04.6-.01.04,0,.07,0,.1,0,0,0,.02,0,.03.01.11.07.28.07.4-.03.04-.03.06-.05.08-.02.05.07.08.05.16.02.16-.06.32-.07.49-.04Z"/>
    </g>
  </g>
</svg>