<?xml version="1.0" encoding="UTF-8"?>
<svg id="Layer_2" data-name="Layer 2" xmlns="http://www.w3.org/2000/svg" viewBox="0 0 212.6 89.25">
  <defs>
    <style>
      .cls-1 {
        fill: #26c640;
      }

      .cls-2 {
        fill: #282828;
      }
    </style>
  </defs>
  <g id="_3" data-name="3">
    <g>
      <path class="cls-2" d="M52.84,24.07c0-3.21-2.23-3.62-5.14-3.62h-3.62v7.15h3.62c2.91,0,5.14-.3,5.14-3.54Z"/>
      <path class="cls-2" d="M66.95,53.99c-3.59,0-6.42,2.77-6.42,7.86s2.83,7.89,6.42,7.89,6.42-2.8,6.42-7.89-2.83-7.86-6.42-7.86Z"/>
      <path class="cls-2" d="M110.85,57.74c0-3.05-2.23-3.4-5.14-3.4h-3.7v6.75h3.7c2.91,0,5.14-.3,5.14-3.35Z"/>
      <path class="cls-2" d="M191.92,34.94c.65-2.34,1-4.81,1-7.35,0-15.22-12.38-27.59-27.59-27.59-7.7,0-14.67,3.17-19.68,8.27-5.01-5.1-11.98-8.27-19.68-8.27s-14.67,3.17-19.68,8.27c-5.01-5.1-11.98-8.27-19.68-8.27s-14.67,3.17-19.68,8.27C61.94,3.17,54.97,0,47.27,0c-15.22,0-27.59,12.38-27.59,27.59,0,2.55.35,5.01,1,7.35-5.7,1.48-10.69,4.73-14.34,9.14h-.68l.17.65c-3.64,4.68-5.82,10.55-5.82,16.92,0,15.22,12.38,27.59,27.59,27.59,7.7,0,14.67-3.17,19.68-8.27,5.01,5.1,11.98,8.27,19.68,8.27s14.67-3.17,19.68-8.27c5.01,5.1,11.98,8.27,19.68,8.27s14.67-3.17,19.68-8.27c5.01,5.1,11.98,8.27,19.68,8.27s14.67-3.17,19.68-8.27c5.01,5.1,11.98,8.27,19.68,8.27,15.22,0,27.59-12.38,27.59-27.59,0-12.83-8.8-23.64-20.68-26.72ZM47.48,18.12c.18,0,.36,0,.53,0,3.28.26,6.09,2.18,7.59,4.92.04.33.06.67.06,1.03,0,4.9-3.37,5.96-8.19,5.96h-3.4v6.51c-1.02-.36-1.95-.89-2.77-1.56v-14.78c1.48-1.19,3.32-1.95,5.33-2.09h.85ZM86.58,35.8c3.78,0,5.17-2.09,5.17-5.98v-10.21c1.1.71,2.05,1.64,2.77,2.72v7.27c0,1.51-.16,2.81-.48,3.92-1.74,2.18-4.42,3.58-7.42,3.58s-5.78-1.45-7.52-3.71c-.25-1.01-.38-2.19-.38-3.57v-7.49c.73-1.09,1.67-2.02,2.77-2.72v10.51c0,3.89,1.39,5.69,5.09,5.69ZM170.51,26.5v-6.86c1.11.72,2.05,1.67,2.77,2.77v10.37c-.72,1.11-1.67,2.05-2.77,2.77v-6.66h-10.36v6.66c-1.11-.72-2.05-1.67-2.77-2.77v-10.36c.72-1.11,1.67-2.05,2.77-2.77v6.86h10.36ZM192.42,57.04h-2.69c-.65-2.26-2.94-3.05-4.9-3.05-1.52,0-4.19.68-4.19,2.88,0,1.74,1.36,2.61,3.21,3.02l2.28.52c3.02.65,6.64,1.8,6.64,5.77,0,.39-.05.76-.12,1.11-1.73,2.35-4.51,3.87-7.65,3.87-2.9,0-5.49-1.3-7.24-3.35-.3-.67-.51-1.41-.61-2.2h2.72c.52,2.72,2.39,4.13,5.44,4.13s4.6-1.36,4.6-3.32c0-2.09-1.8-2.91-4.24-3.48l-2.45-.52c-2.72-.6-5.41-2.12-5.41-5.39,0-.8.18-1.49.49-2.1,1.72-1.72,4.09-2.78,6.71-2.78s4.79.98,6.49,2.57c.42.65.74,1.42.92,2.3ZM150.32,69.93l-5.51-7.83-3.1,3.43v4.78c-1.04-.48-1.98-1.13-2.77-1.93v-13.42c.8-.8,1.74-1.45,2.77-1.93v8.91l7.96-8.88c.78.37,1.51.84,2.16,1.39l-5.14,5.61,5.78,8.21c-.63.65-1.35,1.21-2.15,1.66ZM106.98,63.4c-.52.03-.98.03-1.5.03h-3.48v6.7c-1.05-.54-1.99-1.26-2.77-2.13v-12.68c1.74-1.94,4.26-3.16,7.07-3.16s5.23,1.18,6.97,3.05c.28.68.43,1.49.43,2.48,0,3.13-1.5,4.62-3.92,5.28l2.96,5.67c-.68.62-1.44,1.15-2.27,1.56l-3.49-6.79ZM66.95,71.16c-4.04,0-7.5-2.54-8.87-6.1-.25-1-.38-2.07-.38-3.21,0-1.66.28-3.19.8-4.53,1.58-3.06,4.77-5.16,8.45-5.16s6.87,2.1,8.45,5.16c.52,1.34.8,2.87.8,4.53,0,1.14-.13,2.22-.38,3.22-1.37,3.56-4.83,6.09-8.87,6.09ZM27.94,55.51l-3.47,15.12c-2.03-.71-3.75-2.09-4.89-3.88l-1.46-5.75c.12-1.79.74-3.44,1.72-4.82l2.85,12.39,3.59-16.32c.43-.06.87-.09,1.31-.09.72,0,1.42.08,2.1.24l3.8,16.17,2.5-11.35c.71,1.33,1.11,2.84,1.11,4.44,0,3.88-2.33,7.21-5.67,8.69l-3.49-14.84ZM117.31,27.94c0-3.64,1.29-6.56,3.51-8.32,1.49-.96,3.25-1.52,5.15-1.52,3.58,0,6.71,1.99,8.32,4.93.16.44.3.89.4,1.38h-2.69c-.57-2.48-2.53-4.3-5.66-4.3-3.48,0-6.2,2.72-6.2,7.83s2.61,7.92,6.28,7.92c3.16,0,5.06-1.77,5.69-4.3h2.5c-1.5,3.27-4.81,5.54-8.63,5.54-3.08,0-5.82-1.47-7.56-3.75-.72-1.54-1.11-3.37-1.11-5.41ZM131.01,73.91v.88c-.1-.11-.19-.22-.28-.33.1-.18.19-.37.28-.55ZM185,27.59c0,2.28-.39,4.46-1.11,6.5-.84.03-1.67.11-2.5.22.87-2.07,1.35-4.34,1.35-6.72,0-2.55-.56-4.97-1.54-7.16v-4.45c2.39,3.26,3.8,7.27,3.8,11.61ZM174.51,10.2h-8.27c-.3-.02-.6-.02-.91-.02s-.61,0-.91.02h-8.27c2.74-1.45,5.87-2.28,9.18-2.28s6.44.83,9.18,2.28ZM125.98,7.92c5.96,0,11.31,2.67,14.92,6.87-.34.65-.67,1.32-.96,2-2.92-4.31-7.8-6.95-13.46-6.95-3.91,0-7.39,1.19-10.17,3.27-1.6,1.07-3.02,2.41-4.19,3.94-.32-.77-.68-1.53-1.07-2.26,3.61-4.2,8.96-6.87,14.92-6.87ZM95.8,10.2h-8.27c-.3-.02-.6-.02-.91-.02s-.61,0-.91.02h-8.27c2.74-1.45,5.87-2.28,9.18-2.28s6.44.83,9.18,2.28ZM62.19,14.79c-.26.5-.51,1.02-.75,1.54-1.25-1.91-2.79-3.11-3.94-3.82-3.06-1.87-6.58-2.24-9.2-2.3-.34-.02-.69-.03-1.03-.03-.31,0-.61,0-.91.02h-8.27c2.74-1.45,5.87-2.28,9.18-2.28,5.96,0,11.31,2.67,14.92,6.87ZM33.39,13.66v3.42c-2.22,2.92-3.54,6.56-3.54,10.51,0,2.38.48,4.65,1.35,6.72-.82-.11-1.65-.18-2.5-.22-.72-2.04-1.11-4.22-1.11-6.5,0-5.44,2.22-10.37,5.79-13.93ZM25.16,44.09h-6.4c1.62-.82,3.36-1.41,5.19-1.76.38.6.78,1.19,1.2,1.76ZM7.92,61.66c0-1.92.28-3.77.8-5.53l1.47,5.78c.04,2.82.75,5.47,1.98,7.82l1,3.94.47,1.83c-3.53-3.56-5.71-8.45-5.71-13.85ZM19.63,79.64h15.94c-2.44,1.08-5.13,1.69-7.97,1.69s-5.53-.61-7.97-1.69ZM66.95,81.34c-5.96,0-11.31-2.67-14.92-6.87.31-.59.6-1.18.86-1.79,3.03,4.53,8.04,7.33,14.06,7.33s11.03-2.79,14.06-7.33c.27.61.56,1.21.86,1.79-3.61,4.2-8.96,6.87-14.92,6.87ZM98.33,79.64h15.94c-2.44,1.08-5.13,1.69-7.97,1.69s-5.53-.61-7.97-1.69ZM137.68,79.64h15.94c-2.44,1.08-5.13,1.69-7.97,1.69s-5.53-.61-7.97-1.69ZM185,81.34c-5.96,0-11.31-2.67-14.92-6.87.38-.72.73-1.46,1.05-2.22,2.67,4.79,7.83,7.76,14.13,7.76,7.03,0,12.68-3.8,14.66-9.36,1.04-1.72,1.79-3.64,2.18-5.69h.05l-.03-.13c.19-1.03.29-2.08.29-3.16,0-4.64-1.83-8.86-4.8-11.99-2.3-3.1-5.83-5.15-10.06-5.75.38-.52.74-1.05,1.08-1.59,9.12,1.71,16.04,9.73,16.04,19.33,0,10.85-8.83,19.68-19.68,19.68Z"/>
      <g>
        <g>
          <g>
            <path class="cls-1" d="M47.27,47.23c-10.85,0-19.68-8.83-19.68-19.68S36.42,7.88,47.27,7.88s19.68,8.83,19.68,19.68-8.83,19.68-19.68,19.68ZM47.27,10.14c-9.6,0-17.42,7.81-17.42,17.42s7.81,17.42,17.42,17.42,17.42-7.81,17.42-17.42-7.81-17.42-17.42-17.42Z"/>
            <path class="cls-1" d="M47.48,18.08c4.81,0,8.19,1.09,8.19,5.96s-3.37,5.96-8.19,5.96h-3.4v7.81h-2.77v-19.72h6.17ZM44.08,20.42v7.15h3.62c2.91,0,5.14-.3,5.14-3.54s-2.23-3.62-5.14-3.62h-3.62Z"/>
          </g>
          <g>
            <path class="cls-1" d="M86.62,47.23c-10.85,0-19.68-8.83-19.68-19.68s8.83-19.68,19.68-19.68,19.68,8.83,19.68,19.68-8.83,19.68-19.68,19.68ZM86.62,10.14c-9.6,0-17.42,7.81-17.42,17.42s7.81,17.42,17.42,17.42,17.42-7.81,17.42-17.42-7.81-17.42-17.42-17.42Z"/>
            <path class="cls-1" d="M81.5,18.08v12c0,3.89,1.39,5.69,5.09,5.69s5.17-2.09,5.17-5.98v-11.7h2.77v11.48c0,5.77-2.2,8.6-7.94,8.6s-7.86-2.23-7.86-8.38v-11.7h2.77Z"/>
          </g>
          <g>
            <path class="cls-1" d="M125.98,47.23c-10.85,0-19.68-8.83-19.68-19.68s8.83-19.68,19.68-19.68,19.68,8.83,19.68,19.68-8.83,19.68-19.68,19.68ZM125.98,10.14c-9.6,0-17.42,7.81-17.42,17.42s7.81,17.42,17.42,17.42,17.42-7.81,17.42-17.42-7.81-17.42-17.42-17.42Z"/>
            <path class="cls-1" d="M134.81,31.52c-.87,4.35-4.27,6.64-8.54,6.64-5.66,0-8.95-4.27-8.95-10.26s3.62-10.17,9.17-10.17c4.08,0,7.34,2.42,8.22,6.64h-2.69c-.57-2.48-2.53-4.3-5.66-4.3-3.48,0-6.2,2.72-6.2,7.83s2.61,7.92,6.28,7.92c3.16,0,5.06-1.77,5.69-4.3h2.69Z"/>
          </g>
          <g>
            <path class="cls-1" d="M165.33,47.23c-10.85,0-19.68-8.83-19.68-19.68s8.83-19.68,19.68-19.68,19.68,8.83,19.68,19.68-8.83,19.68-19.68,19.68ZM165.33,10.14c-9.6,0-17.42,7.81-17.42,17.42s7.81,17.42,17.42,17.42,17.42-7.81,17.42-17.42-7.81-17.42-17.42-17.42Z"/>
            <path class="cls-1" d="M173.28,18.08v19.72h-2.77v-8.95h-10.36v8.95h-2.77v-19.72h2.77v8.38h10.36v-8.38h2.77Z"/>
          </g>
        </g>
        <g>
          <g>
            <path class="cls-1" d="M27.59,81.3c-10.85,0-19.68-8.83-19.68-19.68s8.83-19.68,19.68-19.68,19.68,8.83,19.68,19.68-8.83,19.68-19.68,19.68ZM27.59,44.2c-9.6,0-17.42,7.81-17.42,17.42s7.81,17.42,17.42,17.42,17.42-7.81,17.42-17.42-7.81-17.42-17.42-17.42Z"/>
            <path class="cls-1" d="M33.49,68.53l3.65-16.57h2.91l-4.92,19.72h-3.37l-3.81-16.21-3.73,16.21h-3.37l-5.01-19.72h3.05l3.81,16.57,3.65-16.57h3.26l3.89,16.57Z"/>
          </g>
          <g>
            <path class="cls-1" d="M66.95,81.3c-10.85,0-19.68-8.83-19.68-19.68s8.83-19.68,19.68-19.68,19.68,8.83,19.68,19.68-8.83,19.68-19.68,19.68ZM66.95,44.2c-9.6,0-17.42,7.81-17.42,17.42s7.81,17.42,17.42,17.42,17.42-7.81,17.42-17.42-7.81-17.42-17.42-17.42Z"/>
            <path class="cls-1" d="M66.95,72.04c-5.69,0-9.25-4.27-9.25-10.23s3.56-10.2,9.25-10.2,9.25,4.24,9.25,10.2-3.56,10.23-9.25,10.23ZM66.95,69.7c3.59,0,6.42-2.8,6.42-7.89s-2.83-7.86-6.42-7.86-6.42,2.77-6.42,7.86,2.83,7.89,6.42,7.89Z"/>
          </g>
          <g>
            <path class="cls-1" d="M106.3,81.3c-10.85,0-19.68-8.83-19.68-19.68s8.83-19.68,19.68-19.68,19.68,8.83,19.68,19.68-8.83,19.68-19.68,19.68ZM106.3,44.2c-9.6,0-17.42,7.81-17.42,17.42s7.81,17.42,17.42,17.42,17.42-7.81,17.42-17.42-7.81-17.42-17.42-17.42Z"/>
            <path class="cls-1" d="M106.98,63.36c-.52.03-.98.03-1.5.03h-3.48v8.3h-2.77v-19.72h6.26c4.79,0,8.22.95,8.22,5.69,0,3.13-1.5,4.62-3.92,5.28l4.57,8.76h-3.1l-4.27-8.32ZM102,54.31v6.75h3.7c2.91,0,5.14-.3,5.14-3.35s-2.23-3.4-5.14-3.4h-3.7Z"/>
          </g>
          <g>
            <path class="cls-1" d="M145.65,81.3c-10.85,0-19.68-8.83-19.68-19.68s8.83-19.68,19.68-19.68,19.68,8.83,19.68,19.68-8.83,19.68-19.68,19.68ZM145.65,44.2c-9.6,0-17.42,7.81-17.42,17.42s7.81,17.42,17.42,17.42,17.42-7.81,17.42-17.42-7.81-17.42-17.42-17.42Z"/>
            <path class="cls-1" d="M141.71,61.9l8.9-9.93h3.45l-7.37,8.05,8.22,11.67h-3.32l-6.77-9.63-3.1,3.43v6.2h-2.77v-19.72h2.77v9.93Z"/>
          </g>
          <g>
            <path class="cls-1" d="M185,81.3c-10.85,0-19.68-8.83-19.68-19.68s8.83-19.68,19.68-19.68,19.68,8.83,19.68,19.68-8.83,19.68-19.68,19.68ZM185,44.2c-9.6,0-17.42,7.81-17.42,17.42s7.81,17.42,17.42,17.42,17.42-7.81,17.42-17.42-7.81-17.42-17.42-17.42Z"/>
            <path class="cls-1" d="M184.94,51.61c3.56,0,6.69,1.6,7.48,5.39h-2.69c-.65-2.26-2.94-3.05-4.9-3.05-1.52,0-4.19.68-4.19,2.88,0,1.74,1.36,2.61,3.21,3.02l2.28.52c3.02.65,6.64,1.8,6.64,5.77s-3.59,5.9-7.51,5.9c-4.65,0-7.59-2.56-8.11-6.47h2.72c.52,2.72,2.39,4.13,5.44,4.13s4.6-1.36,4.6-3.32c0-2.09-1.8-2.91-4.24-3.48l-2.45-.52c-2.72-.6-5.41-2.12-5.41-5.39,0-3.78,3.94-5.39,7.13-5.39Z"/>
          </g>
        </g>
      </g>
    </g>
  </g>
</svg>